<?xml version="1.0" encoding="UTF-8"?>
<!-- Generator: visioncortex VTracer 0.6.3 -->
<svg version="1.1" xmlns="http://www.w3.org/2000/svg" width="150" height="132">
<path d="M0,0 L2,0 L2,2 L3,2 L3,4 L4,4 L4,8 L5,8 L5,15 L6,15 L6,10 L7,10 L7,9 L9,9 L9,17 L8,17 L8,20 L7,20 L7,21 L10,21 L10,23 L9,23 L9,26 L8,26 L8,28 L7,28 L7,29 L6,29 L6,30 L9,30 L9,33 L8,33 L8,35 L7,35 L7,37 L6,37 L6,38 L5,38 L5,39 L4,39 L4,40 L3,40 L3,41 L2,41 L2,42 L3,42 L3,43 L4,43 L4,45 L5,45 L5,47 L6,47 L6,48 L7,48 L7,50 L8,50 L8,53 L6,53 L6,54 L7,54 L7,56 L8,56 L8,58 L9,58 L9,59 L10,59 L10,62 L8,62 L8,63 L9,63 L9,65 L10,65 L10,66 L11,66 L11,69 L10,69 L10,70 L9,70 L9,71 L10,71 L10,73 L11,73 L11,76 L12,76 L12,78 L13,78 L13,80 L14,80 L14,83 L15,83 L15,86 L16,86 L16,90 L14,90 L14,89 L13,89 L13,88 L12,88 L12,87 L10,87 L10,86 L9,86 L9,89 L10,89 L10,97 L9,97 L9,98 L7,98 L7,96 L6,96 L6,95 L5,95 L5,97 L6,97 L6,105 L5,105 L5,108 L4,108 L4,109 L2,109 L2,107 L1,107 L1,103 L0,103 L0,102 L-1,102 L-1,101 L-2,101 L-2,108 L-3,108 L-3,110 L-4,110 L-4,112 L-5,112 L-5,114 L-6,114 L-6,115 L-7,115 L-7,116 L-8,116 L-8,117 L-9,117 L-9,110 L-10,110 L-10,108 L-11,108 L-11,110 L-12,110 L-12,114 L-13,114 L-13,116 L-14,116 L-14,118 L-15,118 L-15,119 L-17,119 L-17,118 L-18,118 L-18,115 L-19,115 L-19,117 L-20,117 L-20,118 L-21,118 L-21,120 L-22,120 L-22,121 L-23,121 L-23,120 L-24,120 L-24,119 L-23,119 L-23,114 L-25,114 L-25,115 L-26,115 L-26,116 L-28,116 L-28,117 L-29,117 L-29,118 L-30,118 L-30,119 L-31,119 L-31,120 L-33,120 L-33,121 L-34,121 L-34,122 L-35,122 L-35,123 L-36,123 L-36,124 L-37,124 L-37,126 L-38,126 L-38,127 L-39,127 L-39,129 L-40,129 L-40,131 L-42,131 L-42,129 L-43,129 L-43,127 L-44,127 L-44,126 L-45,126 L-45,125 L-46,125 L-46,123 L-47,123 L-47,122 L-49,122 L-49,121 L-50,121 L-50,120 L-51,120 L-51,119 L-52,119 L-52,118 L-53,118 L-53,117 L-55,117 L-55,116 L-56,116 L-56,115 L-57,115 L-57,114 L-58,114 L-58,115 L-59,115 L-59,118 L-58,118 L-58,120 L-59,120 L-59,121 L-60,121 L-60,120 L-61,120 L-61,118 L-62,118 L-62,117 L-63,117 L-63,114 L-64,114 L-64,118 L-65,118 L-65,119 L-67,119 L-67,118 L-68,118 L-68,116 L-69,116 L-69,114 L-70,114 L-70,110 L-71,110 L-71,108 L-72,108 L-72,113 L-73,113 L-73,114 L-72,114 L-72,116 L-73,116 L-73,117 L-74,117 L-74,116 L-75,116 L-75,115 L-76,115 L-76,114 L-77,114 L-77,112 L-78,112 L-78,110 L-79,110 L-79,108 L-80,108 L-80,101 L-81,101 L-81,102 L-82,102 L-82,104 L-83,104 L-83,108 L-84,108 L-84,110 L-85,110 L-85,109 L-86,109 L-86,107 L-87,107 L-87,104 L-88,104 L-88,97 L-87,97 L-87,95 L-88,95 L-88,96 L-89,96 L-89,97 L-91,97 L-91,96 L-92,96 L-92,90 L-91,90 L-91,87 L-94,87 L-94,88 L-95,88 L-95,89 L-96,89 L-96,90 L-98,90 L-98,86 L-97,86 L-97,83 L-96,83 L-96,80 L-95,80 L-95,78 L-94,78 L-94,76 L-93,76 L-93,74 L-92,74 L-92,72 L-91,72 L-91,70 L-92,70 L-92,69 L-93,69 L-93,67 L-92,67 L-92,65 L-91,65 L-91,63 L-90,63 L-90,62 L-92,62 L-92,59 L-91,59 L-91,57 L-90,57 L-90,56 L-89,56 L-89,54 L-88,54 L-88,53 L-90,53 L-90,50 L-89,50 L-89,49 L-88,49 L-88,47 L-87,47 L-87,45 L-86,45 L-86,44 L-85,44 L-85,40 L-87,40 L-87,38 L-88,38 L-88,36 L-89,36 L-89,35 L-90,35 L-90,32 L-91,32 L-91,30 L-88,30 L-88,29 L-89,29 L-89,28 L-90,28 L-90,26 L-91,26 L-91,23 L-92,23 L-92,21 L-90,21 L-90,22 L-89,22 L-89,20 L-90,20 L-90,17 L-91,17 L-91,9 L-89,9 L-89,12 L-88,12 L-88,16 L-87,16 L-87,18 L-86,18 L-86,12 L-87,12 L-87,9 L-86,9 L-86,4 L-85,4 L-85,2 L-84,2 L-84,1 L-82,1 L-82,8 L-81,8 L-81,12 L-80,12 L-80,14 L-79,14 L-79,16 L-78,16 L-78,17 L-77,17 L-77,16 L-76,16 L-76,11 L-75,11 L-75,9 L-74,9 L-74,8 L-72,8 L-72,16 L-71,16 L-71,18 L-70,18 L-70,20 L-69,20 L-69,21 L-68,21 L-68,22 L-67,22 L-67,23 L-66,23 L-66,24 L-65,24 L-65,25 L-64,25 L-64,26 L-63,26 L-63,23 L-61,23 L-61,24 L-60,24 L-60,25 L-59,25 L-59,26 L-55,26 L-55,25 L-52,25 L-52,24 L-47,24 L-47,23 L-36,23 L-36,24 L-30,24 L-30,25 L-27,25 L-27,26 L-25,26 L-25,25 L-22,25 L-22,24 L-21,24 L-21,23 L-18,23 L-18,24 L-17,24 L-17,23 L-15,23 L-15,21 L-13,21 L-13,19 L-12,19 L-12,18 L-11,18 L-11,15 L-10,15 L-10,8 L-7,8 L-7,11 L-6,11 L-6,15 L-5,15 L-5,17 L-4,17 L-4,15 L-3,15 L-3,13 L-2,13 L-2,11 L-1,11 L-1,6 L0,6 L0,4 L-1,4 L-1,3 L0,3 Z M4,16 L4,17 L5,17 L5,16 Z M-86,18 L-86,20 L-85,20 L-85,18 Z M-85,21 L-85,22 L-84,22 L-84,21 Z M-89,22 L-89,23 L-88,23 L-88,22 Z M6,22 L6,23 L7,23 L7,22 Z M-88,24 L-88,25 L-87,25 L-87,24 Z M-87,25 L-87,26 L-86,26 L-86,25 Z M-91,69 L-91,70 L-90,70 L-90,69 Z M8,69 L8,70 L9,70 L9,69 Z " fill="#332E2C" transform="translate(116,0)"/>
<path d="M0,0 L1,0 L1,2 L0,2 L0,4 L-1,4 L-1,6 L-2,6 L-2,9 L0,9 L0,8 L1,8 L1,10 L0,10 L0,11 L-1,11 L-1,12 L-3,12 L-3,14 L-4,14 L-4,11 L-5,11 L-5,12 L-6,12 L-6,13 L-7,13 L-7,14 L-8,14 L-8,15 L-7,15 L-7,16 L-5,16 L-5,20 L-6,20 L-6,21 L-8,21 L-8,22 L-9,22 L-9,23 L-11,23 L-11,24 L-12,24 L-12,25 L-10,25 L-10,26 L-11,26 L-11,27 L-9,27 L-9,29 L-8,29 L-8,31 L-7,31 L-7,34 L-6,34 L-6,36 L-5,36 L-5,49 L-6,49 L-6,50 L-7,50 L-7,53 L-8,53 L-8,55 L-9,55 L-9,56 L-10,56 L-10,57 L-11,57 L-11,58 L-12,58 L-12,59 L-13,59 L-13,60 L-18,60 L-18,61 L-17,61 L-17,62 L-22,62 L-22,61 L-24,61 L-24,62 L-23,62 L-23,63 L-25,63 L-25,62 L-26,62 L-26,61 L-27,61 L-27,64 L-28,64 L-28,63 L-30,63 L-30,64 L-29,64 L-29,65 L-33,65 L-33,64 L-35,64 L-35,63 L-36,63 L-36,62 L-37,62 L-37,61 L-38,61 L-38,60 L-39,60 L-39,59 L-40,59 L-40,56 L-41,56 L-41,54 L-42,54 L-42,53 L-43,53 L-43,56 L-42,56 L-42,60 L-43,60 L-43,62 L-44,62 L-44,70 L-45,70 L-45,67 L-46,67 L-46,62 L-47,62 L-47,59 L-48,59 L-48,56 L-47,56 L-47,53 L-48,53 L-48,54 L-49,54 L-49,57 L-50,57 L-50,59 L-51,59 L-51,60 L-52,60 L-52,61 L-53,61 L-53,62 L-54,62 L-54,63 L-55,63 L-55,64 L-57,64 L-57,65 L-61,65 L-61,64 L-65,64 L-65,65 L-68,65 L-68,64 L-70,64 L-70,63 L-71,63 L-71,62 L-74,62 L-74,61 L-75,61 L-75,60 L-78,60 L-78,58 L-79,58 L-79,57 L-80,57 L-80,56 L-81,56 L-81,54 L-82,54 L-82,53 L-83,53 L-83,50 L-84,50 L-84,49 L-85,49 L-85,36 L-84,36 L-84,34 L-83,34 L-83,31 L-82,31 L-82,29 L-81,29 L-81,28 L-80,28 L-80,27 L-79,27 L-79,26 L-80,26 L-80,25 L-81,25 L-81,22 L-82,22 L-82,21 L-83,21 L-83,20 L-81,20 L-81,21 L-80,21 L-80,22 L-78,22 L-78,23 L-76,23 L-76,24 L-75,24 L-75,25 L-73,25 L-73,27 L-72,27 L-72,29 L-71,29 L-71,27 L-70,27 L-70,28 L-67,28 L-67,27 L-68,27 L-68,26 L-69,26 L-69,25 L-71,25 L-71,24 L-72,24 L-72,23 L-74,23 L-74,22 L-75,22 L-75,21 L-76,21 L-76,20 L-77,20 L-77,19 L-79,19 L-79,18 L-80,18 L-80,17 L-81,17 L-81,16 L-82,16 L-82,13 L-83,13 L-83,12 L-84,12 L-84,11 L-85,11 L-85,10 L-86,10 L-86,9 L-87,9 L-87,7 L-86,7 L-86,4 L-85,4 L-85,6 L-84,6 L-84,7 L-80,7 L-80,10 L-79,10 L-79,12 L-78,12 L-78,13 L-77,13 L-77,14 L-76,14 L-76,16 L-75,16 L-75,17 L-74,17 L-74,18 L-71,18 L-71,19 L-70,19 L-70,21 L-72,21 L-72,22 L-71,22 L-71,23 L-70,23 L-70,24 L-68,24 L-68,25 L-67,25 L-67,26 L-66,26 L-66,27 L-64,27 L-64,28 L-63,28 L-63,29 L-61,29 L-61,30 L-60,30 L-60,31 L-59,31 L-59,32 L-61,32 L-61,33 L-60,33 L-60,34 L-58,34 L-58,35 L-56,35 L-56,36 L-55,36 L-55,37 L-54,37 L-54,38 L-52,38 L-52,37 L-53,37 L-53,36 L-54,36 L-54,35 L-55,35 L-55,34 L-56,34 L-56,33 L-57,33 L-57,31 L-58,31 L-58,30 L-59,30 L-59,29 L-60,29 L-60,28 L-61,28 L-61,26 L-62,26 L-62,25 L-63,25 L-63,24 L-64,24 L-64,22 L-65,22 L-65,21 L-66,21 L-66,20 L-67,20 L-67,19 L-68,19 L-68,18 L-69,18 L-69,17 L-70,17 L-70,16 L-71,16 L-71,15 L-72,15 L-72,14 L-73,14 L-73,13 L-74,13 L-74,12 L-75,12 L-75,11 L-76,11 L-76,9 L-77,9 L-77,7 L-78,7 L-78,1 L-77,1 L-77,2 L-76,2 L-76,4 L-75,4 L-75,6 L-74,6 L-74,7 L-73,7 L-73,8 L-72,8 L-72,9 L-71,9 L-71,10 L-70,10 L-70,11 L-69,11 L-69,12 L-67,12 L-67,13 L-66,13 L-66,14 L-64,14 L-64,15 L-62,15 L-62,16 L-61,16 L-61,17 L-60,17 L-60,18 L-59,18 L-59,19 L-58,19 L-58,20 L-57,20 L-57,22 L-56,22 L-56,23 L-55,23 L-55,25 L-54,25 L-54,26 L-53,26 L-53,27 L-52,27 L-52,29 L-51,29 L-51,30 L-50,30 L-50,32 L-49,32 L-49,33 L-48,33 L-48,35 L-47,35 L-47,36 L-46,36 L-46,39 L-44,39 L-44,37 L-43,37 L-43,35 L-42,35 L-42,33 L-41,33 L-41,32 L-40,32 L-40,31 L-39,31 L-39,29 L-38,29 L-38,28 L-37,28 L-37,26 L-36,26 L-36,25 L-35,25 L-35,23 L-34,23 L-34,22 L-33,22 L-33,21 L-32,21 L-32,20 L-31,20 L-31,18 L-30,18 L-30,17 L-29,17 L-29,16 L-28,16 L-28,15 L-26,15 L-26,14 L-25,14 L-25,13 L-23,13 L-23,12 L-21,12 L-21,11 L-20,11 L-20,10 L-19,10 L-19,9 L-18,9 L-18,8 L-17,8 L-17,7 L-16,7 L-16,6 L-15,6 L-15,5 L-14,5 L-14,3 L-13,3 L-13,1 L-12,1 L-12,8 L-13,8 L-13,12 L-12,12 L-12,11 L-11,11 L-11,10 L-10,10 L-10,8 L-9,8 L-9,9 L-7,9 L-7,8 L-6,8 L-6,5 L-5,5 L-5,3 L-4,3 L-4,1 L-3,1 L-3,4 L-2,4 L-2,3 L-1,3 L-1,1 L0,1 Z " fill="#282422" transform="translate(120,17)"/>
<path d="M0,0 L2,0 L2,2 L3,2 L3,4 L4,4 L4,8 L5,8 L5,15 L6,15 L6,10 L7,10 L7,9 L9,9 L9,17 L8,17 L8,20 L7,20 L7,21 L10,21 L10,23 L9,23 L9,26 L8,26 L8,28 L7,28 L7,29 L6,29 L6,30 L9,30 L9,33 L8,33 L8,35 L7,35 L7,37 L6,37 L6,38 L5,38 L5,39 L4,39 L4,40 L3,40 L3,41 L2,41 L2,42 L3,42 L3,43 L4,43 L4,45 L5,45 L5,47 L6,47 L6,48 L7,48 L7,50 L8,50 L8,53 L6,53 L6,54 L7,54 L7,56 L6,56 L6,59 L5,59 L5,60 L6,60 L6,61 L4,61 L4,60 L3,60 L3,62 L4,62 L4,64 L5,64 L5,65 L6,65 L6,66 L7,66 L7,68 L6,68 L6,70 L7,70 L7,72 L8,72 L8,75 L9,75 L9,80 L10,80 L10,84 L8,84 L8,85 L7,85 L7,84 L6,84 L6,83 L5,83 L5,85 L6,85 L6,88 L7,88 L7,90 L8,90 L8,94 L7,94 L7,93 L5,93 L5,92 L4,92 L4,94 L3,94 L3,93 L1,93 L1,99 L-1,99 L-1,97 L-2,97 L-2,95 L-3,95 L-3,93 L-4,93 L-4,92 L-5,92 L-5,91 L-6,91 L-6,93 L-5,93 L-5,94 L-4,94 L-4,96 L-5,96 L-5,95 L-6,95 L-6,94 L-7,94 L-7,93 L-8,93 L-8,92 L-9,92 L-9,91 L-10,91 L-10,90 L-11,90 L-11,89 L-12,89 L-12,92 L-13,92 L-13,94 L-15,94 L-15,92 L-16,92 L-16,91 L-17,91 L-17,90 L-18,90 L-18,89 L-19,89 L-19,92 L-18,92 L-18,99 L-19,99 L-19,102 L-20,102 L-20,101 L-21,101 L-21,99 L-22,99 L-22,98 L-23,98 L-23,97 L-24,97 L-24,96 L-25,96 L-25,98 L-24,98 L-24,103 L-25,103 L-25,105 L-26,105 L-26,108 L-28,108 L-28,104 L-29,104 L-29,103 L-30,103 L-30,101 L-29,101 L-29,98 L-28,98 L-28,97 L-27,97 L-27,96 L-26,96 L-26,94 L-27,94 L-27,93 L-28,93 L-28,92 L-29,92 L-29,90 L-28,90 L-28,89 L-24,89 L-24,88 L-22,88 L-22,86 L-20,86 L-20,85 L-21,85 L-21,84 L-25,84 L-25,83 L-27,83 L-27,82 L-25,82 L-25,81 L-26,81 L-26,80 L-24,80 L-24,81 L-23,81 L-23,78 L-22,78 L-22,79 L-21,79 L-21,80 L-19,80 L-19,79 L-20,79 L-20,78 L-18,78 L-18,79 L-13,79 L-13,78 L-14,78 L-14,77 L-9,77 L-9,76 L-8,76 L-8,75 L-7,75 L-7,74 L-6,74 L-6,73 L-5,73 L-5,72 L-4,72 L-4,70 L-3,70 L-3,67 L-2,67 L-2,66 L-1,66 L-1,53 L-2,53 L-2,51 L-3,51 L-3,48 L-4,48 L-4,46 L-5,46 L-5,44 L-7,44 L-7,43 L-6,43 L-6,42 L-8,42 L-8,41 L-7,41 L-7,40 L-5,40 L-5,39 L-4,39 L-4,38 L-2,38 L-2,37 L-1,37 L-1,33 L-3,33 L-3,32 L-4,32 L-4,31 L-3,31 L-3,30 L-2,30 L-2,29 L-1,29 L-1,28 L0,28 L0,31 L1,31 L1,29 L3,29 L3,28 L4,28 L4,27 L5,27 L5,25 L4,25 L4,26 L2,26 L2,23 L3,23 L3,21 L4,21 L4,19 L5,19 L5,16 L4,16 L4,18 L3,18 L3,20 L2,20 L2,21 L1,21 L1,18 L0,18 L0,20 L-1,20 L-1,22 L-2,22 L-2,25 L-3,25 L-3,26 L-5,26 L-5,25 L-6,25 L-6,27 L-7,27 L-7,28 L-8,28 L-8,29 L-9,29 L-9,25 L-8,25 L-8,18 L-9,18 L-9,20 L-10,20 L-10,22 L-11,22 L-11,23 L-12,23 L-12,24 L-13,24 L-13,25 L-14,25 L-14,26 L-15,26 L-15,27 L-16,27 L-16,28 L-17,28 L-17,29 L-19,29 L-19,30 L-21,30 L-21,31 L-22,31 L-22,32 L-24,32 L-24,33 L-25,33 L-25,34 L-26,34 L-26,35 L-27,35 L-27,37 L-28,37 L-28,38 L-29,38 L-29,39 L-30,39 L-30,40 L-31,40 L-31,42 L-32,42 L-32,43 L-33,43 L-33,45 L-34,45 L-34,46 L-35,46 L-35,48 L-36,48 L-36,49 L-37,49 L-37,50 L-38,50 L-38,52 L-39,52 L-39,54 L-40,54 L-40,56 L-42,56 L-42,53 L-43,53 L-43,52 L-44,52 L-44,50 L-45,50 L-45,49 L-46,49 L-46,47 L-47,47 L-47,46 L-48,46 L-48,42 L-49,42 L-49,41 L-50,41 L-50,39 L-51,39 L-51,38 L-52,38 L-52,36 L-51,36 L-51,37 L-49,37 L-49,36 L-50,36 L-50,35 L-51,35 L-51,34 L-53,34 L-53,33 L-55,33 L-55,32 L-56,32 L-56,31 L-58,31 L-58,30 L-60,30 L-60,29 L-62,29 L-62,28 L-63,28 L-63,23 L-61,23 L-61,24 L-60,24 L-60,25 L-59,25 L-59,26 L-55,26 L-55,25 L-52,25 L-52,24 L-47,24 L-47,23 L-36,23 L-36,24 L-30,24 L-30,25 L-27,25 L-27,26 L-25,26 L-25,25 L-22,25 L-22,24 L-21,24 L-21,23 L-18,23 L-18,24 L-17,24 L-17,23 L-15,23 L-15,21 L-13,21 L-13,19 L-12,19 L-12,18 L-11,18 L-11,15 L-10,15 L-10,8 L-7,8 L-7,11 L-6,11 L-6,15 L-5,15 L-5,17 L-4,17 L-4,15 L-3,15 L-3,13 L-2,13 L-2,11 L-1,11 L-1,6 L0,6 L0,4 L-1,4 L-1,3 L0,3 Z M6,22 L6,23 L7,23 L7,22 Z " fill="#37302E" transform="translate(116,0)"/>
<path d="M0,0 L2,0 L2,2 L3,2 L3,3 L4,3 L4,6 L2,6 L2,7 L3,7 L3,9 L4,9 L4,10 L5,10 L5,13 L4,13 L4,14 L3,14 L3,15 L4,15 L4,17 L5,17 L5,20 L6,20 L6,22 L7,22 L7,24 L8,24 L8,27 L9,27 L9,30 L10,30 L10,34 L8,34 L8,33 L7,33 L7,32 L6,32 L6,31 L4,31 L4,30 L3,30 L3,33 L4,33 L4,41 L3,41 L3,42 L1,42 L1,40 L0,40 L0,39 L-1,39 L-1,41 L0,41 L0,49 L-1,49 L-1,52 L-2,52 L-2,53 L-4,53 L-4,51 L-5,51 L-5,47 L-6,47 L-6,46 L-7,46 L-7,45 L-8,45 L-8,52 L-9,52 L-9,54 L-10,54 L-10,56 L-11,56 L-11,58 L-12,58 L-12,59 L-13,59 L-13,60 L-14,60 L-14,61 L-15,61 L-15,54 L-16,54 L-16,52 L-17,52 L-17,54 L-18,54 L-18,58 L-19,58 L-19,60 L-20,60 L-20,62 L-21,62 L-21,63 L-23,63 L-23,62 L-24,62 L-24,59 L-25,59 L-25,61 L-26,61 L-26,62 L-27,62 L-27,64 L-28,64 L-28,65 L-29,65 L-29,64 L-30,64 L-30,63 L-29,63 L-29,58 L-31,58 L-31,59 L-32,59 L-32,60 L-34,60 L-34,61 L-35,61 L-35,62 L-36,62 L-36,63 L-37,63 L-37,64 L-39,64 L-39,65 L-40,65 L-40,66 L-41,66 L-41,67 L-42,67 L-42,68 L-43,68 L-43,70 L-44,70 L-44,71 L-45,71 L-45,73 L-46,73 L-46,75 L-48,75 L-48,73 L-49,73 L-49,71 L-50,71 L-50,70 L-51,70 L-51,69 L-52,69 L-52,67 L-53,67 L-53,66 L-55,66 L-55,65 L-56,65 L-56,64 L-57,64 L-57,63 L-58,63 L-58,62 L-59,62 L-59,61 L-61,61 L-61,60 L-62,60 L-62,59 L-63,59 L-63,58 L-64,58 L-64,59 L-65,59 L-65,62 L-64,62 L-64,64 L-65,64 L-65,65 L-66,65 L-66,64 L-67,64 L-67,62 L-68,62 L-68,61 L-69,61 L-69,58 L-70,58 L-70,62 L-71,62 L-71,63 L-73,63 L-73,62 L-74,62 L-74,60 L-75,60 L-75,58 L-76,58 L-76,52 L-75,52 L-75,48 L-74,48 L-74,46 L-73,46 L-73,43 L-71,43 L-71,54 L-69,54 L-69,51 L-68,51 L-68,50 L-69,50 L-69,46 L-67,46 L-67,43 L-65,43 L-65,41 L-64,41 L-64,40 L-63,40 L-63,42 L-64,42 L-64,46 L-63,46 L-63,49 L-62,49 L-62,52 L-61,52 L-61,51 L-60,51 L-60,50 L-59,50 L-59,55 L-58,55 L-58,56 L-56,56 L-56,59 L-55,59 L-55,60 L-54,60 L-54,61 L-53,61 L-53,63 L-52,63 L-52,64 L-51,64 L-51,65 L-50,65 L-50,66 L-48,66 L-48,68 L-45,68 L-45,66 L-44,66 L-44,64 L-43,64 L-43,63 L-42,63 L-42,62 L-41,62 L-41,61 L-40,61 L-40,60 L-39,60 L-39,58 L-38,58 L-38,56 L-37,56 L-37,51 L-40,51 L-40,49 L-39,49 L-39,48 L-38,48 L-38,46 L-37,46 L-37,45 L-36,45 L-36,47 L-35,47 L-35,48 L-34,48 L-34,52 L-32,52 L-32,49 L-31,49 L-31,47 L-30,47 L-30,42 L-31,42 L-31,40 L-30,40 L-30,41 L-29,41 L-29,42 L-28,42 L-28,43 L-27,43 L-27,45 L-26,45 L-26,46 L-25,46 L-25,43 L-24,43 L-24,36 L-25,36 L-25,33 L-24,33 L-24,34 L-23,34 L-23,35 L-22,35 L-22,36 L-21,36 L-21,38 L-19,38 L-19,36 L-18,36 L-18,33 L-17,33 L-17,34 L-16,34 L-16,35 L-15,35 L-15,36 L-14,36 L-14,37 L-13,37 L-13,38 L-12,38 L-12,39 L-11,39 L-11,40 L-10,40 L-10,38 L-11,38 L-11,37 L-12,37 L-12,35 L-11,35 L-11,36 L-10,36 L-10,37 L-9,37 L-9,39 L-8,39 L-8,41 L-7,41 L-7,43 L-5,43 L-5,37 L-3,37 L-3,38 L-2,38 L-2,36 L-1,36 L-1,37 L1,37 L1,38 L2,38 L2,34 L1,34 L1,32 L0,32 L0,29 L-1,29 L-1,27 L0,27 L0,28 L1,28 L1,29 L2,29 L2,28 L4,28 L4,24 L3,24 L3,19 L2,19 L2,16 L1,16 L1,14 L0,14 L0,12 L1,12 L1,10 L0,10 L0,9 L-1,9 L-1,8 L-2,8 L-2,6 L-3,6 L-3,4 L-2,4 L-2,5 L0,5 L0,4 L-1,4 L-1,3 L0,3 Z M2,13 L2,14 L3,14 L3,13 Z " fill="#1F1D1C" transform="translate(122,56)"/>
<path d="M0,0 L2,0 L2,1 L3,1 L3,2 L5,2 L5,3 L7,3 L7,4 L8,4 L8,5 L10,5 L10,7 L11,7 L11,9 L12,9 L12,7 L13,7 L13,8 L14,8 L14,9 L16,9 L16,10 L17,10 L17,11 L18,11 L18,12 L19,12 L19,13 L20,13 L20,14 L21,14 L21,15 L22,15 L22,16 L23,16 L23,17 L25,17 L25,18 L27,18 L27,19 L29,19 L29,20 L30,20 L30,21 L31,21 L31,22 L32,22 L32,23 L33,23 L33,24 L34,24 L34,26 L35,26 L35,27 L36,27 L36,28 L37,28 L37,29 L39,29 L39,28 L40,28 L40,27 L41,27 L41,26 L42,26 L42,24 L43,24 L43,23 L44,23 L44,22 L45,22 L45,21 L46,21 L46,20 L47,20 L47,19 L48,19 L48,18 L51,18 L51,17 L53,17 L53,16 L54,16 L54,15 L55,15 L55,14 L56,14 L56,13 L57,13 L57,12 L58,12 L58,11 L59,11 L59,10 L60,10 L60,9 L61,9 L61,8 L63,8 L63,7 L64,7 L64,9 L63,9 L63,11 L62,11 L62,13 L61,13 L61,14 L60,14 L60,15 L59,15 L59,16 L58,16 L58,17 L57,17 L57,18 L55,18 L55,19 L54,19 L54,20 L52,20 L52,21 L51,21 L51,22 L50,22 L50,23 L48,23 L48,24 L47,24 L47,25 L45,25 L45,26 L44,26 L44,27 L43,27 L43,28 L41,28 L41,29 L40,29 L40,30 L39,30 L39,31 L37,31 L37,30 L36,30 L36,29 L35,29 L35,28 L33,28 L33,27 L32,27 L32,26 L31,26 L31,25 L29,25 L29,29 L28,29 L28,31 L27,31 L27,32 L25,32 L25,33 L26,33 L26,35 L29,35 L29,34 L31,34 L31,33 L32,33 L32,31 L35,31 L35,34 L34,34 L34,37 L33,37 L33,39 L32,39 L32,40 L31,40 L31,41 L30,41 L30,42 L29,42 L29,43 L28,43 L28,44 L26,44 L26,45 L22,45 L22,44 L18,44 L18,45 L15,45 L15,44 L13,44 L13,43 L12,43 L12,42 L9,42 L9,41 L8,41 L8,40 L5,40 L5,38 L4,38 L4,37 L3,37 L3,36 L2,36 L2,34 L1,34 L1,33 L0,33 L0,30 L-1,30 L-1,29 L-2,29 L-2,16 L-1,16 L-1,14 L0,14 L0,11 L1,11 L1,9 L2,9 L2,8 L3,8 L3,7 L4,7 L4,6 L3,6 L3,5 L2,5 L2,2 L1,2 L1,1 L0,1 Z " fill="#150E0D" transform="translate(37,37)"/>
<path d="M0,0 L2,0 L2,7 L3,7 L3,11 L4,11 L4,13 L5,13 L5,15 L6,15 L6,16 L7,16 L7,15 L8,15 L8,10 L9,10 L9,8 L10,8 L10,7 L12,7 L12,15 L13,15 L13,17 L14,17 L14,19 L15,19 L15,20 L16,20 L16,21 L17,21 L17,22 L18,22 L18,23 L19,23 L19,24 L20,24 L20,25 L21,25 L21,27 L22,27 L22,28 L24,28 L24,29 L26,29 L26,30 L28,30 L28,31 L29,31 L29,32 L31,32 L31,33 L33,33 L33,34 L34,34 L34,35 L35,35 L35,36 L33,36 L33,35 L32,35 L32,37 L33,37 L33,38 L34,38 L34,40 L35,40 L35,41 L36,41 L36,43 L35,43 L35,42 L34,42 L34,41 L33,41 L33,39 L32,39 L32,38 L31,38 L31,36 L30,36 L30,35 L29,35 L29,34 L28,34 L28,33 L27,33 L27,32 L26,32 L26,31 L24,31 L24,30 L22,30 L22,29 L21,29 L21,28 L19,28 L19,27 L18,27 L18,26 L17,26 L17,25 L16,25 L16,24 L15,24 L15,23 L14,23 L14,22 L13,22 L13,20 L12,20 L12,18 L11,18 L11,17 L10,17 L10,23 L11,23 L11,25 L12,25 L12,27 L13,27 L13,28 L14,28 L14,29 L15,29 L15,30 L16,30 L16,31 L17,31 L17,32 L18,32 L18,33 L19,33 L19,34 L20,34 L20,35 L21,35 L21,36 L22,36 L22,37 L23,37 L23,38 L24,38 L24,40 L25,40 L25,41 L26,41 L26,42 L27,42 L27,44 L28,44 L28,45 L29,45 L29,46 L30,46 L30,47 L31,47 L31,49 L32,49 L32,50 L33,50 L33,51 L34,51 L34,52 L35,52 L35,53 L36,53 L36,54 L34,54 L34,53 L33,53 L33,52 L32,52 L32,51 L30,51 L30,50 L28,50 L28,49 L27,49 L27,48 L29,48 L29,47 L28,47 L28,46 L27,46 L27,45 L25,45 L25,44 L24,44 L24,43 L22,43 L22,42 L21,42 L21,41 L20,41 L20,40 L18,40 L18,39 L17,39 L17,38 L16,38 L16,37 L18,37 L18,35 L17,35 L17,34 L14,34 L14,33 L13,33 L13,32 L12,32 L12,30 L11,30 L11,29 L10,29 L10,28 L9,28 L9,26 L8,26 L8,23 L4,23 L4,22 L3,22 L3,20 L2,20 L2,23 L1,23 L1,25 L2,25 L2,26 L3,26 L3,27 L4,27 L4,28 L5,28 L5,29 L6,29 L6,32 L7,32 L7,33 L8,33 L8,34 L9,34 L9,35 L11,35 L11,36 L12,36 L12,37 L13,37 L13,38 L14,38 L14,39 L16,39 L16,40 L17,40 L17,41 L19,41 L19,42 L20,42 L20,43 L21,43 L21,44 L18,44 L18,43 L17,43 L17,45 L16,45 L16,43 L15,43 L15,41 L13,41 L13,40 L12,40 L12,39 L10,39 L10,38 L8,38 L8,37 L7,37 L7,36 L5,36 L5,37 L6,37 L6,38 L7,38 L7,41 L8,41 L8,42 L9,42 L9,43 L8,43 L8,44 L7,44 L7,45 L6,45 L6,47 L5,47 L5,50 L4,50 L4,52 L3,52 L3,65 L4,65 L4,66 L5,66 L5,69 L6,69 L6,70 L7,70 L7,72 L8,72 L8,73 L9,73 L9,74 L10,74 L10,76 L13,76 L13,77 L14,77 L14,78 L17,78 L17,79 L18,79 L18,80 L20,80 L20,81 L23,81 L23,80 L27,80 L27,81 L31,81 L31,80 L33,80 L33,79 L34,79 L34,78 L35,78 L35,77 L36,77 L36,76 L37,76 L37,75 L38,75 L38,73 L39,73 L39,70 L40,70 L40,69 L41,69 L41,72 L40,72 L40,75 L41,75 L41,78 L42,78 L42,89 L43,89 L43,90 L40,90 L40,89 L38,89 L38,87 L35,87 L35,86 L31,86 L31,85 L26,85 L26,84 L19,84 L19,83 L17,83 L17,82 L14,82 L14,81 L13,81 L13,80 L12,80 L12,79 L11,79 L11,78 L10,78 L10,77 L9,77 L9,76 L8,76 L8,75 L7,75 L7,74 L6,74 L6,72 L5,72 L5,71 L4,71 L4,69 L3,69 L3,67 L2,67 L2,64 L1,64 L1,52 L2,52 L2,50 L3,50 L3,48 L4,48 L4,46 L5,46 L5,44 L6,44 L6,42 L5,42 L5,43 L4,43 L4,45 L3,45 L3,46 L1,46 L1,45 L2,45 L2,44 L3,44 L3,41 L2,41 L2,40 L4,40 L4,39 L3,39 L3,38 L2,38 L2,37 L1,37 L1,36 L0,36 L0,35 L-1,35 L-1,34 L-3,34 L-3,35 L-2,35 L-2,36 L-3,36 L-3,37 L-4,37 L-4,35 L-5,35 L-5,34 L-6,34 L-6,31 L-7,31 L-7,29 L-4,29 L-4,28 L-5,28 L-5,27 L-6,27 L-6,25 L-7,25 L-7,22 L-8,22 L-8,20 L-6,20 L-6,21 L-5,21 L-5,19 L-6,19 L-6,16 L-7,16 L-7,8 L-5,8 L-5,11 L-4,11 L-4,15 L-3,15 L-3,17 L-2,17 L-2,11 L-3,11 L-3,8 L-2,8 L-2,3 L-1,3 L-1,1 L0,1 Z M-2,17 L-2,19 L-1,19 L-1,17 Z M-1,20 L-1,21 L0,21 L0,20 Z M-5,21 L-5,22 L-4,22 L-4,21 Z M-4,23 L-4,24 L-3,24 L-3,23 Z M-3,24 L-3,25 L-2,25 L-2,24 Z " fill="#201E1D" transform="translate(32,1)"/>
<path d="M0,0 L7,0 L7,1 L10,1 L10,3 L12,3 L12,2 L14,2 L14,4 L15,4 L15,6 L16,6 L16,7 L17,7 L17,9 L18,9 L18,10 L19,10 L19,12 L20,12 L20,13 L22,13 L22,12 L23,12 L23,10 L24,10 L24,9 L25,9 L25,7 L26,7 L26,6 L27,6 L27,4 L28,4 L28,3 L30,3 L30,4 L31,4 L31,5 L32,5 L32,10 L31,10 L31,13 L30,13 L30,15 L29,15 L29,16 L28,16 L28,18 L31,18 L31,23 L30,23 L30,25 L29,25 L29,27 L28,27 L28,28 L27,28 L27,29 L26,29 L26,30 L25,30 L25,31 L24,31 L24,33 L23,33 L23,35 L20,35 L20,33 L18,33 L18,32 L17,32 L17,31 L16,31 L16,30 L15,30 L15,28 L14,28 L14,27 L13,27 L13,26 L12,26 L12,23 L10,23 L10,22 L9,22 L9,17 L8,17 L8,18 L7,18 L7,19 L6,19 L6,16 L5,16 L5,13 L4,13 L4,9 L5,9 L5,7 L4,7 L4,8 L3,8 L3,10 L1,10 L1,11 L0,11 L0,12 L-1,12 L-1,1 L0,1 Z " fill="#2D2A28" transform="translate(54,89)"/>
<path d="M0,0 L2,0 L2,2 L1,2 L1,3 L0,3 L0,4 L-2,4 L-2,5 L-3,5 L-3,6 L-4,6 L-4,7 L-5,7 L-5,8 L-7,8 L-7,9 L-9,9 L-9,10 L-10,10 L-10,11 L-12,11 L-12,12 L-14,12 L-14,13 L-15,13 L-15,14 L-17,14 L-17,15 L-18,15 L-18,16 L-20,16 L-20,17 L-21,17 L-21,18 L-22,18 L-22,19 L-23,19 L-23,20 L-24,20 L-24,22 L-23,22 L-23,21 L-22,21 L-22,20 L-21,20 L-21,19 L-20,19 L-20,18 L-18,18 L-18,17 L-17,17 L-17,16 L-16,16 L-16,15 L-14,15 L-14,16 L-15,16 L-15,17 L-16,17 L-16,18 L-17,18 L-17,20 L-18,20 L-18,21 L-19,21 L-19,23 L-20,23 L-20,24 L-21,24 L-21,26 L-22,26 L-22,27 L-28,27 L-28,26 L-30,26 L-30,25 L-31,25 L-31,24 L-32,24 L-32,23 L-33,23 L-33,21 L-34,21 L-34,20 L-35,20 L-35,18 L-36,18 L-36,17 L-37,17 L-37,15 L-36,15 L-36,16 L-34,16 L-34,15 L-35,15 L-35,14 L-36,14 L-36,13 L-38,13 L-38,12 L-40,12 L-40,11 L-41,11 L-41,10 L-43,10 L-43,9 L-45,9 L-45,8 L-47,8 L-47,7 L-48,7 L-48,2 L-46,2 L-46,3 L-45,3 L-45,4 L-44,4 L-44,5 L-40,5 L-40,4 L-37,4 L-37,3 L-32,3 L-32,2 L-21,2 L-21,3 L-15,3 L-15,4 L-12,4 L-12,5 L-10,5 L-10,4 L-7,4 L-7,3 L-6,3 L-6,2 L-3,2 L-3,3 L-2,3 L-2,2 L0,2 Z " fill="#73716F" transform="translate(101,21)"/>
<path d="M0,0 L2,0 L2,1 L3,1 L3,3 L4,3 L4,6 L5,6 L5,8 L6,8 L6,21 L5,21 L5,22 L4,22 L4,25 L3,25 L3,27 L2,27 L2,28 L1,28 L1,29 L0,29 L0,30 L-1,30 L-1,31 L-2,31 L-2,32 L-7,32 L-7,33 L-6,33 L-6,34 L-11,34 L-11,33 L-13,33 L-13,34 L-12,34 L-12,35 L-14,35 L-14,34 L-15,34 L-15,33 L-16,33 L-16,36 L-17,36 L-17,35 L-19,35 L-19,36 L-18,36 L-18,37 L-22,37 L-22,36 L-24,36 L-24,35 L-25,35 L-25,34 L-26,34 L-26,33 L-27,33 L-27,32 L-28,32 L-28,31 L-29,31 L-29,28 L-30,28 L-30,26 L-31,26 L-31,25 L-32,25 L-32,28 L-31,28 L-31,32 L-32,32 L-32,34 L-33,34 L-33,42 L-34,42 L-34,39 L-35,39 L-35,26 L-33,26 L-33,24 L-32,24 L-32,23 L-31,23 L-31,22 L-29,22 L-29,23 L-28,23 L-28,25 L-27,25 L-27,26 L-25,26 L-25,27 L-21,27 L-21,25 L-19,25 L-19,26 L-11,26 L-11,25 L-9,25 L-9,24 L-8,24 L-8,23 L-7,23 L-7,22 L-6,22 L-6,20 L-5,20 L-5,19 L-4,19 L-4,11 L-5,11 L-5,9 L-6,9 L-6,7 L-7,7 L-7,5 L-6,5 L-6,4 L-4,4 L-4,3 L-3,3 L-3,2 L-2,2 L-2,1 L0,1 Z " fill="#F1F2F0" transform="translate(109,45)"/>
<path d="M0,0 L1,0 L1,1 L2,1 L2,3 L3,3 L3,5 L4,5 L4,6 L5,6 L5,7 L6,7 L6,8 L7,8 L7,9 L8,9 L8,10 L9,10 L9,11 L11,11 L11,12 L12,12 L12,13 L14,13 L14,14 L16,14 L16,15 L17,15 L17,16 L18,16 L18,17 L19,17 L19,18 L20,18 L20,19 L21,19 L21,21 L22,21 L22,22 L23,22 L23,24 L24,24 L24,25 L25,25 L25,26 L26,26 L26,28 L27,28 L27,29 L28,29 L28,31 L29,31 L29,32 L30,32 L30,34 L31,34 L31,35 L32,35 L32,38 L34,38 L34,36 L35,36 L35,34 L36,34 L36,32 L37,32 L37,31 L38,31 L38,30 L39,30 L39,28 L40,28 L40,27 L41,27 L41,25 L42,25 L42,24 L43,24 L43,22 L44,22 L44,21 L45,21 L45,20 L46,20 L46,19 L47,19 L47,17 L48,17 L48,16 L49,16 L49,15 L50,15 L50,14 L52,14 L52,13 L53,13 L53,12 L55,12 L55,11 L57,11 L57,10 L58,10 L58,9 L59,9 L59,8 L60,8 L60,7 L61,7 L61,6 L62,6 L62,5 L63,5 L63,4 L64,4 L64,2 L65,2 L65,0 L66,0 L66,7 L65,7 L65,8 L64,8 L64,10 L63,10 L63,11 L62,11 L62,12 L61,12 L61,13 L60,13 L60,14 L59,14 L59,15 L58,15 L58,16 L57,16 L57,17 L56,17 L56,18 L55,18 L55,19 L54,19 L54,21 L53,21 L53,22 L52,22 L52,23 L51,23 L51,24 L50,24 L50,25 L51,25 L51,27 L52,27 L52,26 L54,26 L54,27 L53,27 L53,28 L52,28 L52,29 L50,29 L50,30 L49,30 L49,31 L48,31 L48,29 L49,29 L49,28 L47,28 L47,29 L46,29 L46,31 L45,31 L45,32 L44,32 L44,33 L43,33 L43,34 L42,34 L42,35 L41,35 L41,36 L37,36 L37,37 L36,37 L36,38 L35,38 L35,39 L34,39 L34,43 L32,43 L32,42 L31,42 L31,41 L30,41 L30,40 L29,40 L29,39 L28,39 L28,38 L27,38 L27,37 L26,37 L26,36 L25,36 L25,35 L24,35 L24,34 L23,34 L23,33 L22,33 L22,32 L21,32 L21,30 L20,30 L20,29 L19,29 L19,28 L18,28 L18,27 L17,27 L17,25 L16,25 L16,24 L15,24 L15,23 L14,23 L14,21 L13,21 L13,20 L12,20 L12,19 L11,19 L11,18 L10,18 L10,17 L9,17 L9,16 L8,16 L8,15 L7,15 L7,14 L6,14 L6,13 L5,13 L5,12 L4,12 L4,11 L3,11 L3,10 L2,10 L2,8 L1,8 L1,6 L0,6 Z " fill="#54514F" transform="translate(42,18)"/>
<path d="M0,0 L1,0 L1,1 L2,1 L2,2 L3,2 L3,3 L6,3 L6,4 L9,4 L9,11 L10,11 L10,13 L11,13 L11,15 L12,15 L12,16 L13,16 L13,17 L14,17 L14,18 L16,18 L16,19 L25,19 L25,18 L27,18 L27,20 L30,20 L30,19 L32,19 L32,18 L33,18 L33,16 L36,16 L36,19 L35,19 L35,22 L34,22 L34,24 L33,24 L33,25 L32,25 L32,26 L31,26 L31,27 L30,27 L30,28 L29,28 L29,29 L27,29 L27,30 L23,30 L23,29 L19,29 L19,30 L16,30 L16,29 L14,29 L14,28 L13,28 L13,27 L10,27 L10,26 L9,26 L9,25 L6,25 L6,23 L5,23 L5,22 L4,22 L4,21 L3,21 L3,19 L2,19 L2,18 L1,18 L1,15 L0,15 L0,14 L-1,14 L-1,1 L0,1 Z " fill="#F1F2F0" transform="translate(36,52)"/>
<path d="M0,0 L4,0 L4,1 L3,1 L3,2 L2,2 L2,4 L1,4 L1,5 L3,5 L3,4 L4,4 L4,3 L5,3 L5,2 L6,2 L6,4 L7,4 L7,5 L4,5 L4,7 L12,7 L12,8 L13,8 L13,10 L14,10 L14,11 L16,11 L16,15 L15,15 L15,14 L14,14 L14,13 L9,13 L9,14 L8,14 L8,16 L9,16 L9,17 L10,17 L10,19 L9,19 L9,18 L8,18 L8,17 L7,17 L7,16 L6,16 L6,15 L5,15 L5,14 L4,14 L4,13 L3,13 L3,12 L2,12 L2,15 L1,15 L1,17 L-1,17 L-1,15 L-2,15 L-2,14 L-3,14 L-3,13 L-4,13 L-4,12 L-5,12 L-5,15 L-4,15 L-4,22 L-5,22 L-5,25 L-6,25 L-6,24 L-7,24 L-7,22 L-8,22 L-8,21 L-9,21 L-9,20 L-10,20 L-10,19 L-11,19 L-11,21 L-10,21 L-10,26 L-11,26 L-11,28 L-12,28 L-12,31 L-14,31 L-14,27 L-15,27 L-15,26 L-16,26 L-16,24 L-15,24 L-15,21 L-14,21 L-14,20 L-13,20 L-13,19 L-12,19 L-12,17 L-13,17 L-13,16 L-14,16 L-14,15 L-15,15 L-15,13 L-14,13 L-14,12 L-10,12 L-10,11 L-8,11 L-8,9 L-6,9 L-6,8 L-7,8 L-7,7 L-11,7 L-11,6 L-13,6 L-13,5 L-11,5 L-11,4 L-12,4 L-12,3 L-10,3 L-10,4 L-9,4 L-9,1 L-8,1 L-8,2 L-7,2 L-7,3 L-5,3 L-5,2 L-6,2 L-6,1 L-4,1 L-4,2 L1,2 L1,1 L0,1 Z " fill="#353230" transform="translate(102,77)"/>
<path d="M0,0 L7,0 L7,1 L10,1 L10,3 L12,3 L12,2 L14,2 L14,4 L15,4 L15,6 L16,6 L16,7 L17,7 L17,9 L18,9 L18,10 L19,10 L19,12 L20,12 L20,13 L22,13 L22,12 L23,12 L23,10 L24,10 L24,9 L25,9 L25,7 L26,7 L26,6 L27,6 L27,4 L28,4 L28,3 L30,3 L30,4 L31,4 L31,5 L32,5 L32,10 L31,10 L31,12 L30,12 L30,9 L29,9 L29,10 L28,10 L28,12 L27,12 L27,13 L26,13 L26,14 L25,14 L25,15 L24,15 L24,17 L23,17 L23,18 L22,18 L22,22 L20,22 L20,18 L19,18 L19,16 L18,16 L18,15 L17,15 L17,14 L16,14 L16,13 L15,13 L15,11 L14,11 L14,10 L13,10 L13,9 L12,9 L12,12 L11,12 L11,11 L10,11 L10,13 L9,13 L9,15 L8,15 L8,18 L7,18 L7,19 L6,19 L6,16 L5,16 L5,13 L4,13 L4,9 L5,9 L5,7 L4,7 L4,8 L3,8 L3,10 L1,10 L1,11 L0,11 L0,12 L-1,12 L-1,1 L0,1 Z " fill="#9F9E9C" transform="translate(54,89)"/>
<path d="M0,0 L1,0 L1,2 L0,2 L0,4 L-1,4 L-1,6 L-2,6 L-2,9 L0,9 L0,8 L1,8 L1,10 L0,10 L0,11 L-1,11 L-1,12 L-3,12 L-3,14 L-4,14 L-4,11 L-5,11 L-5,12 L-6,12 L-6,13 L-7,13 L-7,14 L-8,14 L-8,15 L-7,15 L-7,16 L-5,16 L-5,20 L-6,20 L-6,21 L-8,21 L-8,20 L-7,20 L-7,19 L-6,19 L-6,17 L-9,17 L-9,18 L-10,18 L-10,19 L-11,19 L-11,20 L-14,20 L-14,21 L-15,21 L-15,22 L-17,22 L-17,23 L-18,23 L-18,24 L-19,24 L-19,25 L-21,25 L-21,26 L-22,26 L-22,27 L-26,27 L-26,28 L-27,28 L-27,26 L-28,26 L-28,25 L-27,25 L-27,24 L-26,24 L-26,23 L-25,23 L-25,22 L-24,22 L-24,20 L-23,20 L-23,19 L-22,19 L-22,18 L-21,18 L-21,17 L-20,17 L-20,16 L-19,16 L-19,15 L-18,15 L-18,14 L-17,14 L-17,13 L-16,13 L-16,12 L-15,12 L-15,11 L-14,11 L-14,9 L-13,9 L-13,12 L-12,12 L-12,11 L-11,11 L-11,10 L-10,10 L-10,8 L-9,8 L-9,9 L-7,9 L-7,8 L-6,8 L-6,5 L-5,5 L-5,3 L-4,3 L-4,1 L-3,1 L-3,4 L-2,4 L-2,3 L-1,3 L-1,1 L0,1 Z " fill="#423F3D" transform="translate(120,17)"/>
<path d="M0,0 L2,0 L2,2 L1,2 L1,3 L0,3 L0,4 L-2,4 L-2,5 L-3,5 L-3,6 L-4,6 L-4,7 L-5,7 L-5,8 L-7,8 L-7,9 L-9,9 L-9,10 L-10,10 L-10,11 L-12,11 L-12,12 L-14,12 L-14,13 L-15,13 L-15,14 L-17,14 L-17,15 L-18,15 L-18,16 L-20,16 L-20,17 L-21,17 L-21,18 L-22,18 L-22,19 L-23,19 L-23,20 L-24,20 L-24,21 L-25,21 L-25,18 L-24,18 L-24,15 L-25,15 L-25,16 L-26,16 L-26,17 L-27,17 L-27,15 L-28,15 L-28,14 L-29,14 L-29,13 L-31,13 L-31,12 L-32,12 L-32,11 L-34,11 L-34,10 L-36,10 L-36,9 L-37,9 L-37,8 L-36,8 L-36,7 L-33,7 L-33,8 L-31,8 L-31,9 L-29,9 L-29,10 L-28,10 L-28,11 L-27,11 L-27,8 L-25,8 L-25,9 L-24,9 L-24,10 L-23,10 L-23,9 L-21,9 L-21,8 L-20,8 L-20,7 L-14,7 L-14,6 L-13,6 L-13,5 L-16,5 L-16,4 L-17,4 L-17,3 L-15,3 L-15,4 L-12,4 L-12,5 L-10,5 L-10,4 L-7,4 L-7,3 L-6,3 L-6,2 L-3,2 L-3,3 L-2,3 L-2,2 L0,2 Z " fill="#797776" transform="translate(101,21)"/>
<path d="M0,0 L2,0 L2,1 L3,1 L3,3 L4,3 L4,6 L5,6 L5,8 L6,8 L6,21 L5,21 L5,22 L4,22 L4,25 L3,25 L3,27 L2,27 L2,25 L0,25 L0,24 L-1,24 L-1,23 L3,23 L3,22 L0,22 L0,19 L-4,19 L-4,11 L-5,11 L-5,9 L-6,9 L-6,7 L-7,7 L-7,5 L-6,5 L-6,4 L-4,4 L-4,3 L-3,3 L-3,2 L-2,2 L-2,1 L0,1 Z " fill="#E4E4E3" transform="translate(109,45)"/>
<path d="M0,0 L1,0 L1,1 L2,1 L2,3 L3,3 L3,5 L4,5 L4,6 L5,6 L5,7 L6,7 L6,8 L7,8 L7,9 L8,9 L8,10 L9,10 L9,11 L11,11 L11,12 L12,12 L12,13 L14,13 L14,14 L16,14 L16,15 L17,15 L17,16 L18,16 L18,17 L19,17 L19,18 L20,18 L20,19 L21,19 L21,21 L22,21 L22,22 L23,22 L23,24 L24,24 L24,25 L25,25 L25,26 L26,26 L26,28 L27,28 L27,29 L28,29 L28,31 L29,31 L29,34 L27,34 L27,33 L26,33 L26,32 L25,32 L25,31 L24,31 L24,30 L22,30 L22,29 L21,29 L21,27 L19,27 L19,26 L17,26 L17,25 L16,25 L16,24 L15,24 L15,23 L14,23 L14,21 L13,21 L13,20 L12,20 L12,19 L11,19 L11,18 L10,18 L10,17 L9,17 L9,16 L8,16 L8,15 L7,15 L7,14 L6,14 L6,13 L5,13 L5,12 L4,12 L4,11 L3,11 L3,10 L2,10 L2,8 L1,8 L1,6 L0,6 Z " fill="#8F8E8C" transform="translate(42,18)"/>
<path d="M0,0 L1,0 L1,2 L0,2 L0,4 L-1,4 L-1,6 L-2,6 L-2,7 L-3,7 L-3,8 L-4,8 L-4,9 L-5,9 L-5,10 L-6,10 L-6,11 L-8,11 L-8,12 L-9,12 L-9,13 L-11,13 L-11,14 L-12,14 L-12,15 L-13,15 L-13,16 L-15,16 L-15,17 L-16,17 L-16,18 L-18,18 L-18,19 L-19,19 L-19,20 L-20,20 L-20,21 L-22,21 L-22,22 L-23,22 L-23,23 L-24,23 L-24,24 L-26,24 L-26,23 L-27,23 L-27,22 L-28,22 L-28,21 L-30,21 L-30,20 L-31,20 L-31,19 L-32,19 L-32,18 L-34,18 L-34,17 L-35,17 L-35,16 L-37,16 L-37,15 L-38,15 L-38,14 L-39,14 L-39,13 L-41,13 L-41,12 L-42,12 L-42,11 L-44,11 L-44,10 L-45,10 L-45,9 L-46,9 L-46,8 L-47,8 L-47,6 L-48,6 L-48,5 L-49,5 L-49,4 L-50,4 L-50,1 L-49,1 L-49,2 L-47,2 L-47,3 L-46,3 L-46,4 L-45,4 L-45,5 L-44,5 L-44,6 L-43,6 L-43,7 L-42,7 L-42,8 L-41,8 L-41,9 L-40,9 L-40,10 L-38,10 L-38,11 L-36,11 L-36,12 L-34,12 L-34,13 L-33,13 L-33,14 L-32,14 L-32,15 L-31,15 L-31,16 L-30,16 L-30,17 L-29,17 L-29,19 L-28,19 L-28,20 L-27,20 L-27,21 L-26,21 L-26,22 L-24,22 L-24,21 L-23,21 L-23,20 L-22,20 L-22,19 L-21,19 L-21,17 L-20,17 L-20,16 L-19,16 L-19,15 L-18,15 L-18,14 L-17,14 L-17,13 L-16,13 L-16,12 L-15,12 L-15,11 L-12,11 L-12,10 L-10,10 L-10,9 L-9,9 L-9,8 L-8,8 L-8,7 L-7,7 L-7,6 L-6,6 L-6,5 L-5,5 L-5,4 L-4,4 L-4,3 L-3,3 L-3,2 L-2,2 L-2,1 L0,1 Z " fill="#C2C2C0" transform="translate(100,44)"/>
<path d="M0,0 L7,0 L7,9 L5,9 L5,7 L4,7 L4,6 L3,6 L3,5 L2,5 L2,4 L1,4 L1,7 L2,7 L2,14 L1,14 L1,17 L0,17 L0,16 L-1,16 L-1,14 L-2,14 L-2,13 L-3,13 L-3,12 L-4,12 L-4,11 L-5,11 L-5,13 L-4,13 L-4,18 L-5,18 L-5,20 L-6,20 L-6,23 L-8,23 L-8,19 L-9,19 L-9,18 L-10,18 L-10,16 L-9,16 L-9,13 L-8,13 L-8,12 L-7,12 L-7,11 L-6,11 L-6,9 L-7,9 L-7,8 L-8,8 L-8,7 L-9,7 L-9,5 L-8,5 L-8,4 L-4,4 L-4,3 L-2,3 L-2,1 L0,1 Z " fill="#4F4D4B" transform="translate(96,85)"/>
<path d="M0,0 L2,0 L2,1 L3,1 L3,2 L4,2 L4,3 L8,3 L8,2 L11,2 L11,1 L16,1 L16,0 L27,0 L27,1 L31,1 L31,2 L32,2 L32,3 L35,3 L35,4 L34,4 L34,5 L28,5 L28,6 L27,6 L27,7 L25,7 L25,8 L24,8 L24,7 L23,7 L23,6 L21,6 L21,9 L20,9 L20,8 L19,8 L19,7 L17,7 L17,6 L15,6 L15,5 L12,5 L12,6 L11,6 L11,7 L12,7 L12,8 L14,8 L14,9 L16,9 L16,10 L17,10 L17,11 L15,11 L15,10 L13,10 L13,9 L11,9 L11,8 L8,8 L8,7 L6,7 L6,6 L4,6 L4,5 L3,5 L3,4 L2,4 L2,3 L1,3 L1,2 L0,2 Z " fill="#5A5755" transform="translate(53,23)"/>
<path d="M0,0 L4,0 L4,1 L3,1 L3,2 L2,2 L2,3 L4,3 L4,2 L5,2 L5,4 L7,4 L7,5 L8,5 L8,7 L9,7 L9,9 L10,9 L10,13 L9,13 L9,14 L8,14 L8,13 L5,13 L5,12 L4,12 L4,10 L3,10 L3,13 L4,13 L4,16 L5,16 L5,27 L4,27 L4,30 L3,30 L3,32 L2,32 L2,34 L1,34 L1,36 L0,36 L0,37 L-1,37 L-1,38 L-2,38 L-2,39 L-3,39 L-3,40 L-4,40 L-4,41 L-5,41 L-5,42 L-6,42 L-6,43 L-7,43 L-7,44 L-9,44 L-9,43 L-8,43 L-8,41 L-7,41 L-7,40 L-6,40 L-6,39 L-5,39 L-5,38 L-4,38 L-4,37 L-3,37 L-3,36 L-2,36 L-2,35 L-1,35 L-1,34 L0,34 L0,32 L1,32 L1,29 L2,29 L2,28 L3,28 L3,15 L2,15 L2,13 L1,13 L1,10 L0,10 L0,8 L-1,8 L-1,6 L-3,6 L-3,5 L-2,5 L-2,4 L-4,4 L-4,3 L-3,3 L-3,2 L-1,2 L-1,1 L0,1 Z " fill="#161514" transform="translate(112,38)"/>
<path d="M0,0 L2,0 L2,1 L1,1 L1,4 L0,4 L0,5 L-1,5 L-1,9 L0,9 L0,8 L1,8 L1,7 L2,7 L2,9 L3,9 L3,10 L4,10 L4,9 L5,9 L5,7 L6,7 L6,6 L7,6 L7,5 L8,5 L8,4 L9,4 L9,7 L10,7 L10,9 L11,9 L11,10 L12,10 L12,11 L13,11 L13,12 L15,12 L15,13 L17,13 L17,14 L13,14 L13,13 L12,13 L12,12 L11,12 L11,11 L10,11 L10,10 L9,10 L9,8 L7,8 L7,9 L6,9 L6,10 L5,10 L5,12 L4,12 L4,14 L3,14 L3,17 L2,17 L2,19 L1,19 L1,22 L0,22 L0,26 L-1,26 L-1,18 L-4,18 L-4,19 L-5,19 L-5,20 L-6,20 L-6,21 L-8,21 L-8,17 L-7,17 L-7,14 L-6,14 L-6,11 L-5,11 L-5,9 L-4,9 L-4,7 L-3,7 L-3,5 L-2,5 L-2,3 L-1,3 L-1,1 L0,1 Z " fill="#2F2A29" transform="translate(26,69)"/>
<path d="M0,0 L3,0 L3,1 L1,1 L1,8 L3,8 L3,14 L2,14 L2,10 L1,10 L1,12 L0,12 L0,14 L-1,14 L-1,15 L-2,15 L-2,16 L-3,16 L-3,17 L-4,17 L-4,18 L-5,18 L-5,19 L-6,19 L-6,20 L-7,20 L-7,21 L-9,21 L-9,22 L-11,22 L-11,23 L-12,23 L-12,24 L-14,24 L-14,25 L-15,25 L-15,26 L-16,26 L-16,27 L-17,27 L-17,29 L-18,29 L-18,30 L-19,30 L-19,31 L-20,31 L-20,32 L-21,32 L-21,34 L-22,34 L-22,35 L-23,35 L-23,37 L-24,37 L-24,38 L-25,38 L-25,40 L-26,40 L-26,41 L-27,41 L-27,42 L-28,42 L-28,44 L-29,44 L-29,46 L-30,46 L-30,48 L-32,48 L-32,45 L-33,45 L-33,44 L-34,44 L-34,42 L-35,42 L-35,41 L-36,41 L-36,39 L-37,39 L-37,38 L-38,38 L-38,36 L-37,36 L-37,37 L-36,37 L-36,38 L-35,38 L-35,39 L-33,39 L-33,40 L-27,40 L-27,39 L-26,39 L-26,37 L-25,37 L-25,36 L-24,36 L-24,34 L-23,34 L-23,33 L-22,33 L-22,31 L-21,31 L-21,30 L-20,30 L-20,29 L-19,29 L-19,28 L-21,28 L-21,29 L-22,29 L-22,30 L-23,30 L-23,31 L-25,31 L-25,32 L-26,32 L-26,33 L-27,33 L-27,34 L-28,34 L-28,35 L-29,35 L-29,33 L-28,33 L-28,32 L-27,32 L-27,31 L-26,31 L-26,30 L-25,30 L-25,29 L-23,29 L-23,28 L-22,28 L-22,27 L-20,27 L-20,26 L-19,26 L-19,25 L-17,25 L-17,24 L-15,24 L-15,23 L-14,23 L-14,22 L-12,22 L-12,21 L-10,21 L-10,20 L-9,20 L-9,19 L-8,19 L-8,18 L-7,18 L-7,17 L-5,17 L-5,16 L-4,16 L-4,15 L-3,15 L-3,11 L-2,11 L-2,10 L-1,10 L-1,7 L0,7 Z " fill="#454342" transform="translate(106,8)"/>
<path d="M0,0 L3,0 L3,3 L2,3 L2,6 L1,6 L1,8 L0,8 L0,9 L-1,9 L-1,10 L-2,10 L-2,11 L-3,11 L-3,12 L-4,12 L-4,13 L-6,13 L-6,14 L-10,14 L-10,13 L-14,13 L-14,14 L-17,14 L-17,13 L-19,13 L-19,12 L-20,12 L-20,11 L-23,11 L-23,10 L-24,10 L-24,9 L-27,9 L-27,7 L-28,7 L-28,6 L-29,6 L-29,5 L-30,5 L-30,4 L-28,4 L-28,5 L-24,5 L-24,7 L-22,7 L-22,8 L-23,8 L-23,9 L-21,9 L-21,8 L-19,8 L-19,9 L-20,9 L-20,10 L-18,10 L-18,9 L-17,9 L-17,10 L-16,10 L-16,9 L-14,9 L-14,10 L-12,10 L-12,9 L-11,9 L-11,12 L-9,12 L-9,11 L-8,11 L-8,10 L-6,10 L-6,9 L-5,9 L-5,8 L-4,8 L-4,6 L-3,6 L-3,5 L-5,5 L-5,6 L-9,6 L-9,4 L-15,4 L-15,3 L-8,3 L-8,2 L-6,2 L-6,4 L-3,4 L-3,3 L-1,3 L-1,2 L0,2 Z " fill="#C3C3C2" transform="translate(69,68)"/>
<path d="M0,0 L7,0 L7,1 L10,1 L10,3 L12,3 L12,2 L14,2 L14,4 L11,4 L11,5 L10,5 L10,10 L11,10 L11,11 L10,11 L10,13 L9,13 L9,15 L8,15 L8,18 L7,18 L7,19 L6,19 L6,16 L5,16 L5,13 L4,13 L4,9 L5,9 L5,7 L4,7 L4,8 L3,8 L3,10 L1,10 L1,11 L0,11 L0,12 L-1,12 L-1,1 L0,1 Z " fill="#4A4745" transform="translate(54,89)"/>
<path d="M0,0 L2,0 L2,1 L3,1 L3,2 L5,2 L5,3 L7,3 L7,4 L8,4 L8,5 L10,5 L10,7 L11,7 L11,9 L12,9 L12,7 L13,7 L13,11 L14,11 L14,12 L15,12 L15,13 L16,13 L16,14 L13,14 L13,13 L12,13 L12,11 L11,11 L11,10 L10,10 L10,8 L9,8 L9,7 L8,7 L8,6 L7,6 L7,5 L6,5 L6,4 L4,4 L4,5 L5,5 L5,6 L6,6 L6,7 L7,7 L7,8 L8,8 L8,9 L9,9 L9,10 L8,10 L8,11 L9,11 L9,12 L10,12 L10,13 L11,13 L11,16 L10,16 L10,17 L9,17 L9,19 L5,19 L5,18 L2,18 L2,17 L1,17 L1,16 L0,16 L0,15 L-1,15 L-1,14 L0,14 L0,11 L1,11 L1,9 L2,9 L2,8 L3,8 L3,7 L4,7 L4,6 L3,6 L3,5 L2,5 L2,2 L1,2 L1,1 L0,1 Z " fill="#888786" transform="translate(37,37)"/>
<path d="M0,0 L1,0 L1,1 L2,1 L2,2 L3,2 L3,3 L6,3 L6,4 L9,4 L9,13 L8,13 L8,14 L10,14 L10,16 L7,16 L7,17 L6,17 L6,16 L2,16 L2,18 L1,18 L1,15 L0,15 L0,14 L-1,14 L-1,1 L0,1 Z " fill="#E7E7E6" transform="translate(36,52)"/>
<path d="M0,0 L1,0 L1,7 L0,7 L0,8 L-1,8 L-1,10 L-2,10 L-2,11 L-3,11 L-3,12 L-4,12 L-4,13 L-5,13 L-5,14 L-6,14 L-6,15 L-7,15 L-7,16 L-8,16 L-8,17 L-9,17 L-9,18 L-10,18 L-10,19 L-12,19 L-12,20 L-13,20 L-13,21 L-15,21 L-15,22 L-16,22 L-16,23 L-18,23 L-18,24 L-21,24 L-21,21 L-20,21 L-20,20 L-19,20 L-19,19 L-18,19 L-18,17 L-17,17 L-17,16 L-16,16 L-16,15 L-15,15 L-15,14 L-13,14 L-13,13 L-12,13 L-12,12 L-10,12 L-10,11 L-8,11 L-8,10 L-7,10 L-7,9 L-6,9 L-6,8 L-5,8 L-5,7 L-4,7 L-4,6 L-3,6 L-3,5 L-2,5 L-2,4 L-1,4 L-1,2 L0,2 Z " fill="#969593" transform="translate(107,18)"/>
<path d="M0,0 L2,0 L2,1 L3,1 L3,3 L4,3 L4,4 L6,4 L6,5 L10,5 L10,3 L12,3 L12,4 L18,4 L18,5 L12,5 L12,7 L10,7 L10,6 L6,6 L6,7 L7,7 L7,9 L8,9 L8,10 L9,10 L9,11 L10,11 L10,12 L12,12 L12,14 L13,14 L13,15 L9,15 L9,14 L7,14 L7,13 L6,13 L6,12 L5,12 L5,11 L4,11 L4,10 L3,10 L3,9 L2,9 L2,6 L1,6 L1,4 L0,4 L0,3 L-1,3 L-1,6 L0,6 L0,10 L-1,10 L-1,12 L-2,12 L-2,20 L-3,20 L-3,17 L-4,17 L-4,4 L-2,4 L-2,2 L-1,2 L-1,1 L0,1 Z " fill="#C2C2C1" transform="translate(78,67)"/>
<path d="M0,0 L2,0 L2,1 L3,1 L3,2 L4,2 L4,3 L6,3 L6,4 L7,4 L7,5 L8,5 L8,6 L10,6 L10,5 L11,5 L11,4 L12,4 L12,3 L14,3 L14,2 L15,2 L15,1 L16,1 L16,0 L18,0 L18,4 L19,4 L19,5 L20,5 L20,7 L22,7 L22,10 L18,10 L18,9 L16,9 L16,8 L15,8 L15,6 L14,6 L14,5 L12,5 L12,6 L11,6 L11,7 L10,7 L10,9 L8,9 L8,17 L7,17 L7,14 L6,14 L6,11 L7,11 L7,8 L6,8 L6,6 L3,6 L3,8 L2,8 L2,9 L0,9 L0,10 L-3,10 L-3,8 L-4,8 L-4,7 L-2,7 L-2,6 L-1,6 L-1,4 L0,4 Z " fill="#3B3837" transform="translate(66,62)"/>
<path d="M0,0 L1,0 L1,1 L2,1 L2,3 L3,3 L3,6 L4,6 L4,7 L5,7 L5,8 L6,8 L6,9 L7,9 L7,10 L8,10 L8,11 L10,11 L10,12 L12,12 L12,13 L14,13 L14,14 L18,14 L18,15 L15,15 L15,16 L13,16 L13,17 L8,17 L8,18 L7,18 L7,19 L5,19 L5,18 L3,18 L3,19 L0,19 L0,15 L1,15 L1,13 L2,13 L2,9 L1,9 L1,3 L0,3 Z " fill="#191716" transform="translate(77,70)"/>
<path d="M0,0 L1,0 L1,2 L2,2 L2,3 L6,3 L6,6 L7,6 L7,8 L8,8 L8,9 L9,9 L9,10 L10,10 L10,12 L11,12 L11,13 L12,13 L12,14 L15,14 L15,15 L16,15 L16,17 L14,17 L14,18 L15,18 L15,19 L16,19 L16,20 L18,20 L18,21 L19,21 L19,22 L20,22 L20,23 L22,23 L22,24 L23,24 L23,25 L21,25 L21,24 L20,24 L20,26 L19,26 L19,25 L17,25 L17,24 L19,24 L19,23 L18,23 L18,22 L17,22 L17,21 L15,21 L15,20 L14,20 L14,19 L12,19 L12,18 L11,18 L11,17 L10,17 L10,16 L9,16 L9,15 L7,15 L7,14 L6,14 L6,13 L5,13 L5,12 L4,12 L4,9 L3,9 L3,8 L2,8 L2,7 L1,7 L1,6 L0,6 L0,5 L-1,5 L-1,3 L0,3 Z " fill="#42403D" transform="translate(34,21)"/>
<path d="M0,0 L7,0 L7,8 L6,8 L6,10 L5,10 L5,11 L4,11 L4,12 L2,12 L2,13 L-5,13 L-5,12 L-7,12 L-7,11 L-8,11 L-8,10 L-9,10 L-9,5 L-7,5 L-7,7 L-6,7 L-6,8 L-5,8 L-5,9 L-1,9 L-1,8 L1,8 L1,6 L2,6 L2,2 L0,2 Z " fill="#DD3218" transform="translate(95,56)"/>
<path d="M0,0 L2,0 L2,2 L3,2 L3,4 L4,4 L4,15 L3,15 L3,7 L2,7 L2,6 L1,6 L1,14 L0,14 L0,15 L-1,15 L-1,16 L-2,16 L-2,17 L-3,17 L-3,19 L-4,19 L-4,20 L-5,20 L-5,21 L-6,21 L-6,27 L-7,27 L-7,28 L-8,28 L-8,29 L-9,29 L-9,25 L-8,25 L-8,22 L-7,22 L-7,16 L-9,16 L-9,9 L-7,9 L-7,11 L-6,11 L-6,15 L-5,15 L-5,17 L-4,17 L-4,15 L-3,15 L-3,13 L-2,13 L-2,11 L-1,11 L-1,6 L0,6 L0,4 L-1,4 L-1,3 L0,3 Z " fill="#1D1D1C" transform="translate(116,0)"/>
<path d="M0,0 L2,0 L2,1 L3,1 L3,2 L4,2 L4,3 L5,3 L5,4 L6,4 L6,5 L7,5 L7,6 L5,6 L5,7 L6,7 L6,10 L5,10 L5,11 L4,11 L4,12 L6,12 L6,11 L7,11 L7,9 L8,9 L8,8 L9,8 L9,10 L8,10 L8,12 L7,12 L7,14 L6,14 L6,16 L5,16 L5,18 L2,18 L2,17 L0,17 L0,18 L-3,18 L-3,15 L-2,15 L-2,14 L-1,14 L-1,12 L0,12 L0,10 L1,10 L1,9 L2,9 L2,5 L0,5 L0,2 L1,2 L1,1 L0,1 Z " fill="#242322" transform="translate(29,35)"/>
<path d="M0,0 L6,0 L6,2 L4,2 L4,6 L5,6 L5,8 L6,8 L6,9 L11,9 L11,8 L14,8 L14,11 L13,11 L13,12 L11,12 L11,13 L4,13 L4,12 L2,12 L2,11 L1,11 L1,9 L0,9 L0,8 L-1,8 L-1,2 L0,2 Z " fill="#E23519" transform="translate(49,56)"/>
<path d="M0,0 L1,0 L1,2 L3,2 L3,0 L5,0 L5,1 L6,1 L6,2 L7,2 L7,3 L2,3 L2,5 L1,5 L1,11 L2,11 L2,12 L3,12 L3,14 L4,14 L4,15 L6,15 L6,16 L13,16 L13,15 L15,15 L15,14 L16,14 L16,11 L14,11 L14,10 L15,10 L15,8 L17,8 L17,14 L18,14 L18,15 L17,15 L17,16 L15,16 L15,17 L14,17 L14,18 L5,18 L5,17 L3,17 L3,16 L2,16 L2,15 L1,15 L1,14 L0,14 L0,12 L-1,12 L-1,10 L-2,10 L-2,3 L-1,3 L-1,1 L0,1 Z " fill="#2C1A18" transform="translate(47,53)"/>
<path d="M0,0 L1,0 L1,3 L0,3 L0,6 L1,6 L1,9 L2,9 L2,20 L1,20 L1,19 L0,19 L0,17 L-2,17 L-2,16 L-3,16 L-3,15 L-5,15 L-5,14 L-10,14 L-10,13 L-7,13 L-7,10 L-6,10 L-6,9 L-5,9 L-5,8 L-4,8 L-4,7 L-3,7 L-3,6 L-2,6 L-2,4 L-1,4 L-1,1 L0,1 Z " fill="#201F1E" transform="translate(72,70)"/>
<path d="M0,0 L1,0 L1,2 L4,2 L4,6 L3,6 L3,8 L1,8 L1,9 L-3,9 L-3,8 L-4,8 L-4,7 L-5,7 L-5,5 L-7,5 L-7,10 L-6,10 L-6,11 L-5,11 L-5,12 L-3,12 L-3,13 L-2,13 L-2,14 L3,14 L3,15 L-3,15 L-3,14 L-5,14 L-5,13 L-7,13 L-7,11 L-8,11 L-8,10 L-9,10 L-9,5 L-8,5 L-8,4 L-6,4 L-6,3 L-5,3 L-5,2 L-4,2 L-4,1 L0,1 Z " fill="#140D0B" transform="translate(93,56)"/>
<path d="M0,0 L5,0 L5,1 L7,1 L7,2 L9,2 L9,3 L8,3 L8,4 L7,4 L7,5 L6,5 L6,6 L5,6 L5,7 L4,7 L4,8 L3,8 L3,10 L2,10 L2,11 L1,11 L1,9 L0,9 L0,4 L-1,4 L-1,6 L-2,6 L-2,7 L-3,7 L-3,8 L-4,8 L-4,9 L-5,9 L-5,10 L-6,10 L-6,11 L-7,11 L-7,12 L-8,12 L-8,14 L-9,14 L-9,16 L-10,16 L-10,11 L-9,11 L-9,10 L-7,10 L-7,9 L-6,9 L-6,8 L-5,8 L-5,6 L-4,6 L-4,4 L-2,4 L-2,2 L-1,2 L-1,1 L0,1 Z " fill="#4B4744" transform="translate(46,84)"/>
<path d="M0,0 L2,0 L2,1 L3,1 L3,3 L4,3 L4,6 L5,6 L5,7 L4,7 L4,8 L3,8 L3,9 L2,9 L2,10 L-1,10 L-1,11 L-5,11 L-5,9 L-6,9 L-6,7 L-7,7 L-7,5 L-6,5 L-6,4 L-4,4 L-4,3 L-3,3 L-3,2 L-2,2 L-2,1 L0,1 Z " fill="#6B6A68" transform="translate(109,45)"/>
<path d="M0,0 L1,0 L1,1 L3,1 L3,2 L7,2 L7,9 L6,9 L6,8 L5,8 L5,6 L4,6 L4,5 L3,5 L3,4 L2,4 L2,3 L1,3 L1,5 L2,5 L2,10 L1,10 L1,12 L0,12 L0,15 L-2,15 L-2,11 L-3,11 L-3,10 L-4,10 L-4,8 L-3,8 L-3,5 L-2,5 L-2,4 L-1,4 L-1,3 L0,3 Z " fill="#5C5956" transform="translate(90,93)"/>
<path d="M0,0 L11,0 L11,1 L15,1 L15,2 L16,2 L16,3 L19,3 L19,4 L18,4 L18,5 L16,5 L16,4 L12,4 L12,3 L-1,3 L-1,4 L-8,4 L-8,2 L-5,2 L-5,1 L0,1 Z " fill="#191918" transform="translate(69,23)"/>
<path d="M0,0 L1,0 L1,3 L2,3 L2,5 L3,5 L3,6 L4,6 L4,7 L5,7 L5,8 L7,8 L7,9 L9,9 L9,10 L5,10 L5,9 L4,9 L4,8 L3,8 L3,7 L2,7 L2,6 L1,6 L1,4 L-1,4 L-1,5 L-2,5 L-2,6 L-3,6 L-3,8 L-4,8 L-4,10 L-5,10 L-5,13 L-6,13 L-6,15 L-7,15 L-7,18 L-8,18 L-8,22 L-9,22 L-9,15 L-8,15 L-8,13 L-11,13 L-11,10 L-10,10 L-10,8 L-9,8 L-9,10 L-8,10 L-8,12 L-7,12 L-7,11 L-6,11 L-6,9 L-7,9 L-7,8 L-6,8 L-6,7 L-5,7 L-5,6 L-4,6 L-4,5 L-3,5 L-3,3 L-2,3 L-2,2 L-1,2 L-1,1 L0,1 Z " fill="#191413" transform="translate(34,73)"/>
<path d="M0,0 L2,0 L2,7 L3,7 L3,11 L4,11 L4,13 L5,13 L5,16 L4,16 L4,15 L3,15 L3,13 L2,13 L2,11 L1,11 L1,10 L0,10 L0,19 L-1,19 L-1,17 L-2,17 L-2,11 L-3,11 L-3,8 L-2,8 L-2,3 L-1,3 L-1,1 L0,1 Z " fill="#212020" transform="translate(32,1)"/>
<path d="M0,0 L2,0 L2,1 L3,1 L3,2 L5,2 L5,3 L7,3 L7,4 L8,4 L8,5 L10,5 L10,7 L11,7 L11,9 L12,9 L12,7 L13,7 L13,11 L14,11 L14,12 L15,12 L15,13 L16,13 L16,14 L13,14 L13,13 L12,13 L12,11 L11,11 L11,10 L10,10 L10,8 L9,8 L9,7 L8,7 L8,6 L7,6 L7,5 L6,5 L6,4 L4,4 L4,5 L5,5 L5,6 L6,6 L6,7 L7,7 L7,8 L8,8 L8,9 L9,9 L9,10 L8,10 L8,11 L7,11 L7,10 L2,10 L2,12 L3,12 L3,14 L2,14 L2,13 L1,13 L1,12 L0,12 L0,11 L1,11 L1,9 L2,9 L2,8 L3,8 L3,7 L4,7 L4,6 L3,6 L3,5 L2,5 L2,2 L1,2 L1,1 L0,1 Z " fill="#474544" transform="translate(37,37)"/>
<path d="M0,0 L1,0 L1,2 L0,2 L0,3 L-1,3 L-1,4 L-2,4 L-2,5 L-3,5 L-3,6 L-4,6 L-4,7 L-5,7 L-5,8 L-7,8 L-7,9 L-8,9 L-8,10 L-9,10 L-9,11 L-11,11 L-11,12 L-12,12 L-12,13 L-13,13 L-13,14 L-14,14 L-14,15 L-16,15 L-16,12 L-15,12 L-15,11 L-14,11 L-14,9 L-13,9 L-13,8 L-12,8 L-12,6 L-11,6 L-11,5 L-10,5 L-10,3 L-9,3 L-9,5 L-6,5 L-6,4 L-4,4 L-4,3 L-3,3 L-3,2 L-1,2 L-1,1 L0,1 Z " fill="#7B7976" transform="translate(95,37)"/>
<path d="M0,0 L1,0 L1,1 L2,1 L2,2 L3,2 L3,3 L4,3 L4,5 L5,5 L5,6 L6,6 L6,7 L7,7 L7,8 L8,8 L8,9 L5,9 L5,8 L4,8 L4,6 L3,6 L3,5 L2,5 L2,3 L1,3 L1,4 L0,4 L0,6 L-1,6 L-1,9 L0,9 L0,11 L1,11 L1,12 L2,12 L2,14 L3,14 L3,15 L1,15 L1,14 L0,14 L0,12 L-1,12 L-1,11 L-9,11 L-9,9 L-6,9 L-6,8 L-5,8 L-5,7 L-3,7 L-3,5 L-2,5 L-2,4 L-1,4 L-1,2 L0,2 Z " fill="#1F1B1A" transform="translate(115,73)"/>
<path d="M0,0 L1,0 L1,2 L2,2 L2,4 L3,4 L3,5 L4,5 L4,6 L5,6 L5,7 L7,7 L7,8 L5,8 L5,9 L2,9 L2,10 L1,10 L1,11 L3,11 L3,12 L0,12 L0,10 L-4,10 L-4,9 L-6,9 L-6,8 L-7,8 L-7,5 L-3,5 L-3,6 L-2,6 L-2,5 L1,5 L1,3 L-1,3 L-1,2 L0,2 Z " fill="#E0E0DE" transform="translate(45,63)"/>
<path d="M0,0 L3,0 L3,3 L2,3 L2,4 L1,4 L1,5 L0,5 L0,6 L-1,6 L-1,7 L-2,7 L-2,9 L-3,9 L-3,11 L-6,11 L-6,9 L-8,9 L-8,8 L-9,8 L-9,7 L-10,7 L-10,6 L-11,6 L-11,4 L-12,4 L-12,2 L-9,2 L-9,4 L-8,4 L-8,6 L-6,6 L-6,5 L-2,5 L-2,3 L-1,3 L-1,1 L0,1 Z " fill="#4E4B49" transform="translate(80,113)"/>
<path d="M0,0 L1,0 L1,1 L2,1 L2,3 L3,3 L3,5 L4,5 L4,6 L5,6 L5,7 L6,7 L6,8 L7,8 L7,9 L8,9 L8,10 L9,10 L9,11 L11,11 L11,12 L12,12 L12,13 L13,13 L13,14 L6,14 L6,13 L5,13 L5,12 L4,12 L4,11 L3,11 L3,10 L2,10 L2,8 L1,8 L1,6 L0,6 Z " fill="#B3B3B2" transform="translate(42,18)"/>
<path d="M0,0 L1,0 L1,1 L2,1 L2,2 L4,2 L4,4 L5,4 L5,6 L6,6 L6,7 L5,7 L5,14 L4,14 L4,5 L3,5 L3,11 L2,11 L2,12 L1,12 L1,10 L0,10 L0,8 L-1,8 L-1,6 L-2,6 L-2,5 L-3,5 L-3,3 L-4,3 L-4,1 L-3,1 L-3,2 L0,2 Z " fill="#392220" transform="translate(109,94)"/>
<path d="M0,0 L7,0 L7,1 L9,1 L9,3 L7,3 L7,4 L6,4 L6,5 L5,5 L5,7 L4,7 L4,9 L2,9 L2,10 L1,10 L1,11 L0,11 Z " fill="#5D5A58" transform="translate(53,90)"/>
<path d="M0,0 L1,0 L1,7 L0,7 L0,8 L-1,8 L-1,10 L-2,10 L-2,11 L-3,11 L-3,12 L-4,12 L-4,13 L-5,13 L-5,14 L-6,14 L-6,15 L-8,15 L-8,14 L-9,14 L-9,11 L-8,11 L-8,10 L-7,10 L-7,9 L-6,9 L-6,8 L-5,8 L-5,7 L-4,7 L-4,6 L-3,6 L-3,5 L-2,5 L-2,4 L-1,4 L-1,2 L0,2 Z " fill="#B3B3B2" transform="translate(107,18)"/>
<path d="M0,0 L1,0 L1,2 L0,2 L0,4 L-1,4 L-1,6 L-2,6 L-2,9 L0,9 L0,8 L1,8 L1,10 L0,10 L0,11 L-1,11 L-1,12 L-3,12 L-3,14 L-4,14 L-4,11 L-5,11 L-5,12 L-7,12 L-7,11 L-8,11 L-8,9 L-7,9 L-7,8 L-6,8 L-6,5 L-5,5 L-5,3 L-4,3 L-4,1 L-3,1 L-3,4 L-2,4 L-2,3 L-1,3 L-1,1 L0,1 Z " fill="#7C7A79" transform="translate(120,17)"/>
<path d="M0,0 L1,0 L1,1 L2,1 L2,2 L3,2 L3,3 L4,3 L4,4 L6,4 L6,5 L8,5 L8,6 L11,6 L11,7 L13,7 L13,8 L15,8 L15,9 L17,9 L17,10 L18,10 L18,11 L19,11 L19,12 L20,12 L20,14 L21,14 L21,17 L20,17 L20,16 L19,16 L19,15 L18,15 L18,14 L17,14 L17,13 L16,13 L16,12 L15,12 L15,11 L13,11 L13,10 L12,10 L12,9 L10,9 L10,8 L8,8 L8,7 L7,7 L7,6 L5,6 L5,5 L3,5 L3,4 L1,4 L1,3 L0,3 Z " fill="#82807E" transform="translate(53,25)"/>
<path d="M0,0 L2,0 L2,1 L6,1 L6,3 L8,3 L8,4 L7,4 L7,5 L9,5 L9,4 L11,4 L11,5 L10,5 L10,6 L12,6 L12,5 L13,5 L13,6 L15,6 L15,7 L14,7 L14,8 L16,8 L16,7 L18,7 L18,9 L16,9 L16,10 L13,10 L13,9 L11,9 L11,8 L10,8 L10,7 L7,7 L7,6 L6,6 L6,5 L3,5 L3,3 L2,3 L2,2 L1,2 L1,1 L0,1 Z " fill="#989795" transform="translate(39,72)"/>
<path d="M0,0 L1,0 L1,13 L0,13 L0,14 L-1,14 L-1,17 L-2,17 L-2,19 L-3,19 L-3,17 L-5,17 L-5,16 L-6,16 L-6,15 L-2,15 L-2,14 L-4,14 L-4,13 L-2,13 L-2,12 L-1,12 L-1,11 L-4,11 L-4,10 L-3,10 L-3,9 L-5,9 L-5,8 L-4,8 L-4,7 L-1,7 L-1,6 L0,6 Z " fill="#969593" transform="translate(114,53)"/>
<path d="M0,0 L2,0 L2,1 L3,1 L3,2 L4,2 L4,4 L5,4 L5,3 L6,3 L6,2 L7,2 L7,5 L6,5 L6,8 L7,8 L7,11 L6,11 L6,13 L4,13 L4,11 L3,11 L3,9 L2,9 L2,8 L1,8 L1,7 L0,7 L0,6 L-1,6 L-1,5 L-2,5 L-2,4 L-4,4 L-4,3 L-3,3 L-3,2 L-2,2 L-2,3 L-1,3 L-1,4 L0,4 L0,5 L1,5 L1,6 L2,6 L2,7 L3,7 L3,8 L4,8 L4,5 L3,5 L3,3 L2,3 L2,2 L1,2 L1,1 L0,1 Z " fill="#5C5A58" transform="translate(70,34)"/>
<path d="M0,0 L4,0 L4,1 L3,1 L3,2 L2,2 L2,3 L0,3 L0,4 L-1,4 L-1,5 L-2,5 L-2,6 L-6,6 L-6,5 L-9,5 L-9,6 L-13,6 L-13,5 L-11,5 L-11,4 L-12,4 L-12,3 L-10,3 L-10,4 L-9,4 L-9,1 L-8,1 L-8,2 L-7,2 L-7,3 L-5,3 L-5,2 L-6,2 L-6,1 L-4,1 L-4,2 L1,2 L1,1 L0,1 Z " fill="#757371" transform="translate(102,77)"/>
<path d="M0,0 L1,0 L1,1 L2,1 L2,2 L4,2 L4,3 L5,3 L5,4 L7,4 L7,5 L9,5 L9,4 L10,4 L10,6 L11,6 L11,7 L12,7 L12,9 L13,9 L13,12 L11,12 L11,11 L10,11 L10,10 L9,10 L9,9 L8,9 L8,8 L6,8 L6,7 L5,7 L5,5 L3,5 L3,4 L1,4 L1,3 L0,3 L0,2 L-1,2 L-1,1 L0,1 Z " fill="#7B7976" transform="translate(58,40)"/>
<path d="M0,0 L6,0 L6,1 L9,1 L9,2 L11,2 L11,3 L10,3 L10,6 L11,6 L11,7 L12,7 L12,9 L13,9 L13,10 L14,10 L14,12 L13,12 L13,11 L12,11 L12,10 L11,10 L11,9 L10,9 L10,8 L9,8 L9,7 L8,7 L8,6 L7,6 L7,5 L6,5 L6,8 L5,8 L5,1 L0,1 Z " fill="#433F3D" transform="translate(98,84)"/>
<path d="M0,0 L2,0 L2,1 L1,1 L1,2 L0,2 L0,3 L-1,3 L-1,4 L-2,4 L-2,5 L-7,5 L-7,6 L-6,6 L-6,7 L-11,7 L-11,6 L-13,6 L-13,7 L-12,7 L-12,8 L-14,8 L-14,7 L-15,7 L-15,6 L-14,6 L-14,4 L-12,4 L-12,3 L-11,3 L-11,5 L-9,5 L-9,4 L-7,4 L-7,2 L-6,2 L-6,3 L-3,3 L-3,2 L-4,2 L-4,1 L0,1 Z M-11,2 L-10,2 L-10,3 L-11,3 Z " fill="#CFCFCD" transform="translate(109,72)"/>
<path d="M0,0 L6,0 L6,1 L8,1 L8,2 L7,2 L7,3 L6,3 L6,4 L5,4 L5,5 L4,5 L4,6 L3,6 L3,7 L2,7 L2,9 L1,9 L1,10 L0,10 Z " fill="#4F4C49" transform="translate(47,85)"/>
<path d="M0,0 L1,0 L1,2 L2,2 L2,5 L3,5 L3,8 L4,8 L4,10 L5,10 L5,12 L4,12 L4,11 L3,11 L3,9 L1,9 L1,8 L0,8 L0,7 L-2,7 L-2,6 L-7,6 L-7,5 L-4,5 L-4,3 L-2,3 L-2,2 L-1,2 L-1,1 L0,1 Z " fill="#0B0B0A" transform="translate(69,78)"/>
<path d="M0,0 L2,0 L2,1 L3,1 L3,2 L4,2 L4,4 L5,4 L5,5 L6,5 L6,6 L7,6 L7,8 L8,8 L8,9 L9,9 L9,10 L10,10 L10,11 L11,11 L11,13 L12,13 L12,14 L13,14 L13,15 L14,15 L14,16 L15,16 L15,17 L16,17 L16,18 L14,18 L14,17 L13,17 L13,16 L12,16 L12,15 L10,15 L10,14 L8,14 L8,13 L7,13 L7,12 L9,12 L9,11 L8,11 L8,10 L7,10 L7,9 L5,9 L5,6 L4,6 L4,5 L3,5 L3,4 L2,4 L2,3 L1,3 L1,2 L0,2 Z " fill="#181615" transform="translate(52,37)"/>
<path d="M0,0 L2,0 L2,2 L3,2 L3,6 L2,6 L2,8 L1,8 L1,9 L0,9 L0,10 L-1,10 L-1,9 L-2,9 L-2,8 L-4,8 L-4,6 L-3,6 L-3,4 L-2,4 L-2,2 L-1,2 L-1,1 L0,1 Z " fill="#423936" transform="translate(33,77)"/>
<path d="M0,0 L1,0 L1,1 L3,1 L3,2 L4,2 L4,4 L5,4 L5,6 L4,6 L4,8 L3,8 L3,11 L2,11 L2,12 L1,12 L1,9 L0,9 L0,6 L-1,6 L-1,2 L0,2 Z " fill="#81807E" transform="translate(59,96)"/>
<path d="M0,0 L1,0 L1,6 L2,6 L2,7 L6,7 L6,9 L4,9 L4,10 L5,10 L5,11 L2,11 L2,12 L3,12 L3,13 L6,13 L6,14 L3,14 L3,17 L2,17 L2,14 L1,14 L1,13 L0,13 Z " fill="#ADACAB" transform="translate(35,53)"/>
<path d="M0,0 L4,0 L4,2 L5,2 L5,3 L6,3 L6,5 L7,5 L7,6 L8,6 L8,7 L5,7 L5,6 L2,6 L2,5 L1,5 L1,8 L0,8 L0,6 L-1,6 L-1,1 L0,1 Z " fill="#83817F" transform="translate(65,93)"/>
<path d="M0,0 L2,0 L2,6 L3,6 L3,5 L5,5 L5,6 L4,6 L4,10 L3,10 L3,11 L1,11 L1,10 L0,10 L0,8 L-1,8 L-1,6 L-2,6 L-2,3 L0,3 Z " fill="#333131" transform="translate(48,108)"/>
<path d="M0,0 L1,0 L1,3 L2,3 L2,4 L1,4 L1,6 L0,6 L0,7 L-1,7 L-1,9 L-3,9 L-3,10 L-4,10 L-4,11 L-7,11 L-7,9 L-6,9 L-6,8 L-5,8 L-5,6 L-4,6 L-4,5 L-3,5 L-3,4 L-2,4 L-2,3 L-1,3 L-1,1 L0,1 Z " fill="#373534" transform="translate(83,98)"/>
<path d="M0,0 L1,0 L1,2 L2,2 L2,3 L3,3 L3,6 L5,6 L5,4 L6,4 L6,2 L7,2 L7,0 L8,0 L8,2 L9,2 L9,3 L8,3 L8,5 L7,5 L7,6 L6,6 L6,7 L5,7 L5,11 L3,11 L3,8 L2,8 L2,6 L1,6 L1,5 L0,5 L0,4 L-1,4 L-1,2 L0,2 Z " fill="#63615F" transform="translate(71,50)"/>
<path d="M0,0 L1,0 L1,1 L3,1 L3,2 L4,2 L4,3 L5,3 L5,4 L6,4 L6,6 L5,6 L5,5 L2,5 L2,6 L0,6 L0,5 L-3,5 L-3,4 L-4,4 L-4,3 L-5,3 L-5,2 L-6,2 L-6,1 L0,1 Z M0,4 L0,5 L1,5 L1,4 Z " fill="#A2A2A0" transform="translate(55,31)"/>
<path d="M0,0 L1,0 L1,1 L2,1 L2,2 L3,2 L3,3 L6,3 L6,4 L9,4 L9,10 L8,10 L8,6 L3,6 L3,7 L2,7 L2,8 L1,8 L1,7 L0,7 Z " fill="#CCCDCC" transform="translate(36,52)"/>
<path d="M0,0 L3,0 L3,1 L2,1 L2,2 L1,2 L1,3 L0,3 L0,4 L-1,4 L-1,5 L-2,5 L-2,6 L-3,6 L-3,8 L-2,8 L-2,9 L-3,9 L-3,10 L-4,10 L-4,11 L-6,11 L-6,12 L-7,12 L-7,10 L-8,10 L-8,9 L-7,9 L-7,8 L-6,8 L-6,7 L-5,7 L-5,6 L-4,6 L-4,4 L-3,4 L-3,3 L-2,3 L-2,2 L-1,2 L-1,1 L0,1 Z " fill="#262423" transform="translate(100,33)"/>
<path d="M0,0 L1,0 L1,3 L2,3 L2,4 L3,4 L3,5 L2,5 L2,6 L0,6 L0,5 L-1,5 L-1,7 L-6,7 L-6,4 L-5,4 L-5,3 L-3,3 L-3,2 L-2,2 L-2,1 L0,1 Z " fill="#A8A8A6" transform="translate(97,29)"/>
<path d="M0,0 L1,0 L1,2 L-1,2 L-1,3 L-3,3 L-3,4 L0,4 L0,3 L2,3 L2,4 L1,4 L1,5 L-1,5 L-1,7 L-5,7 L-5,5 L-6,5 L-6,3 L-7,3 L-7,1 L0,1 Z " fill="#A0A09E" transform="translate(109,49)"/>
<path d="M0,0 L5,0 L5,1 L7,1 L7,2 L8,2 L8,3 L9,3 L9,6 L8,6 L8,4 L4,4 L4,5 L5,5 L5,6 L2,6 L2,5 L1,5 L1,2 L0,2 Z " fill="#7B7A78" transform="translate(39,47)"/>
<path d="M0,0 L1,0 L1,1 L2,1 L2,2 L3,2 L3,3 L5,3 L5,4 L10,4 L10,5 L9,5 L9,7 L8,7 L8,9 L5,9 L5,8 L4,8 L4,6 L3,6 L3,5 L2,5 L2,3 L1,3 L1,2 L0,2 Z " fill="#4D4A48" transform="translate(68,44)"/>
<path d="M0,0 L2,0 L2,4 L3,4 L3,8 L2,8 L2,16 L1,16 L1,13 L0,13 Z " fill="#D1D1D0" transform="translate(74,71)"/>
<path d="M0,0 L6,0 L6,1 L7,1 L7,8 L6,8 L6,4 L2,4 L2,3 L0,3 L0,2 L-1,2 L-1,3 L-2,3 L-2,1 L0,1 Z " fill="#696765" transform="translate(91,91)"/>
<path d="M0,0 L6,0 L6,2 L4,2 L4,6 L5,6 L5,8 L3,8 L3,6 L2,6 L2,3 L0,3 L0,8 L-1,8 L-1,2 L0,2 Z " fill="#B91D10" transform="translate(49,56)"/>
<path d="M0,0 L1,0 L1,2 L0,2 L0,3 L-1,3 L-1,4 L-2,4 L-2,5 L-3,5 L-3,6 L-4,6 L-4,7 L-6,7 L-6,8 L-8,8 L-8,9 L-9,9 L-9,10 L-11,10 L-11,11 L-12,11 L-12,12 L-15,12 L-15,11 L-14,11 L-14,10 L-12,10 L-12,9 L-11,9 L-11,8 L-9,8 L-9,7 L-7,7 L-7,6 L-6,6 L-6,5 L-5,5 L-5,4 L-4,4 L-4,3 L-2,3 L-2,2 L-1,2 L-1,1 L0,1 Z " fill="#232221" transform="translate(103,22)"/>
<path d="M0,0 L1,0 L1,1 L2,1 L2,2 L3,2 L3,4 L4,4 L4,5 L5,5 L5,6 L6,6 L6,7 L7,7 L7,9 L8,9 L8,11 L5,11 L5,9 L4,9 L4,8 L3,8 L3,5 L2,5 L2,3 L1,3 L1,6 L0,6 L0,4 L-1,4 L-1,3 L0,3 Z " fill="#3C3A38" transform="translate(66,98)"/>
<path d="M0,0 L2,0 L2,1 L1,1 L1,2 L-1,2 L-1,3 L-2,3 L-2,4 L-4,4 L-4,5 L-5,5 L-5,6 L-6,6 L-6,8 L-7,8 L-7,9 L-8,9 L-8,11 L-9,11 L-9,12 L-10,12 L-10,13 L-11,13 L-11,14 L-13,14 L-13,13 L-12,13 L-12,12 L-11,12 L-11,10 L-10,10 L-10,8 L-8,8 L-8,7 L-7,7 L-7,5 L-6,5 L-6,4 L-5,4 L-5,3 L-3,3 L-3,2 L-2,2 L-2,1 L0,1 Z " fill="#575654" transform="translate(110,38)"/>
<path d="M0,0 L2,0 L2,1 L4,1 L4,2 L5,2 L5,3 L7,3 L7,5 L8,5 L8,7 L9,7 L9,5 L10,5 L10,9 L11,9 L11,10 L12,10 L12,11 L13,11 L13,12 L10,12 L10,11 L9,11 L9,9 L8,9 L8,8 L7,8 L7,6 L6,6 L6,5 L5,5 L5,4 L4,4 L4,3 L3,3 L3,2 L1,2 L1,1 L0,1 Z " fill="#585755" transform="translate(40,39)"/>
<path d="M0,0 L2,0 L2,3 L1,3 L1,5 L0,5 L0,8 L-1,8 L-1,9 L-2,9 L-2,8 L-3,8 L-3,2 L-2,2 L-2,1 L0,1 Z " fill="#7C140D" transform="translate(41,97)"/>
<path d="M0,0 L2,0 L2,1 L1,1 L1,2 L0,2 L0,4 L-1,4 L-1,6 L-3,6 L-3,7 L-4,7 L-4,8 L-5,8 L-5,1 L0,1 Z " fill="#83817F" transform="translate(58,93)"/>
<path d="M0,0 L1,0 L1,4 L0,4 L0,5 L-4,5 L-4,6 L-7,6 L-7,11 L-8,11 L-8,4 L-5,4 L-5,3 L-2,3 L-2,2 L-1,2 L-1,1 L0,1 Z " fill="#CACAC9" transform="translate(113,52)"/>
<path d="M0,0 L4,0 L4,1 L6,1 L6,2 L7,2 L7,3 L8,3 L8,4 L6,4 L6,3 L5,3 L5,5 L6,5 L6,6 L7,6 L7,8 L8,8 L8,9 L9,9 L9,11 L8,11 L8,10 L7,10 L7,9 L6,9 L6,7 L5,7 L5,6 L4,6 L4,4 L3,4 L3,3 L2,3 L2,2 L1,2 L1,1 L0,1 Z " fill="#3D3A38" transform="translate(59,33)"/>
<path d="M0,0 L1,0 L1,1 L2,1 L2,2 L5,2 L5,3 L6,3 L6,4 L8,4 L8,5 L11,5 L11,4 L15,4 L15,5 L17,5 L17,6 L14,6 L14,5 L12,5 L12,6 L6,6 L6,5 L4,5 L4,4 L2,4 L2,3 L1,3 L1,2 L0,2 Z " fill="#4D4A48" transform="translate(44,77)"/>
<path d="M0,0 L1,0 L1,1 L3,1 L3,2 L7,2 L7,9 L6,9 L6,8 L5,8 L5,6 L4,6 L4,5 L3,5 L3,4 L2,4 L2,2 L0,2 Z " fill="#999896" transform="translate(90,93)"/>
<path d="M0,0 L2,0 L2,1 L3,1 L3,2 L7,2 L7,3 L9,3 L9,6 L5,6 L5,5 L3,5 L3,4 L2,4 L2,2 L1,2 L1,1 L0,1 Z " fill="#4C4947" transform="translate(79,66)"/>
<path d="M0,0 L7,0 L7,8 L6,8 L6,3 L3,3 L3,5 L2,5 L2,2 L0,2 Z " fill="#A6241B" transform="translate(95,56)"/>
<path d="M0,0 L4,0 L4,7 L2,7 L2,5 L1,5 L1,4 L0,4 L0,3 L-1,3 L-1,1 L0,1 Z " fill="#6A6866" transform="translate(99,87)"/>
<path d="M0,0 L5,0 L5,1 L4,1 L4,3 L3,3 L3,4 L1,4 L1,6 L0,6 L0,7 L-1,7 L-1,6 L-2,6 L-2,4 L-1,4 L-1,2 L0,2 Z " fill="#21201F" transform="translate(25,63)"/>
<path d="M0,0 L2,0 L2,1 L4,1 L4,2 L6,2 L6,3 L7,3 L7,4 L8,4 L8,5 L9,5 L9,6 L10,6 L10,7 L11,7 L11,9 L10,9 L10,8 L9,8 L9,7 L7,7 L7,6 L6,6 L6,5 L5,5 L5,4 L3,4 L3,3 L2,3 L2,2 L1,2 L1,1 L0,1 Z " fill="#A8A7A6" transform="translate(60,54)"/>
<path d="M0,0 L2,0 L2,2 L1,2 L1,3 L0,3 L0,4 L-1,4 L-1,5 L-2,5 L-2,6 L-4,6 L-4,7 L-5,7 L-5,8 L-7,8 L-7,9 L-9,9 L-9,8 L-8,8 L-8,7 L-7,7 L-7,6 L-5,6 L-5,5 L-4,5 L-4,4 L-3,4 L-3,3 L-2,3 L-2,2 L-1,2 L-1,1 L0,1 Z " fill="#E3E4E3" transform="translate(96,49)"/>
<path d="M0,0 L2,0 L2,8 L1,8 L1,7 L-2,7 L-2,3 L-1,3 L-1,1 L0,1 Z " fill="#282727" transform="translate(42,8)"/>
<path d="M0,0 L4,0 L4,1 L3,1 L3,2 L5,2 L5,3 L3,3 L3,4 L1,4 L1,5 L0,5 L0,6 L-1,6 L-1,5 L-2,5 L-2,2 L-1,2 L-1,1 L0,1 Z " fill="#2D2C2B" transform="translate(106,42)"/>
<path d="M0,0 L2,0 L2,2 L1,2 L1,3 L0,3 L0,4 L-2,4 L-2,5 L-3,5 L-3,6 L-4,6 L-4,7 L-6,7 L-6,6 L-5,6 L-5,4 L-7,4 L-7,3 L-6,3 L-6,2 L-3,2 L-3,3 L-2,3 L-2,2 L0,2 Z " fill="#AFAEAD" transform="translate(101,21)"/>
<path d="M0,0 L1,0 L1,2 L2,2 L2,6 L3,6 L3,8 L2,8 L2,7 L-1,7 L-1,6 L-2,6 L-2,2 L0,2 Z " fill="#131211" transform="translate(55,100)"/>
<path d="M0,0 L3,0 L3,1 L4,1 L4,9 L3,9 L3,7 L2,7 L2,5 L1,5 L1,3 L0,3 Z " fill="#85150D" transform="translate(107,97)"/>
<path d="M0,0 L2,0 L2,1 L1,1 L1,4 L0,4 L0,5 L-1,5 L-1,7 L-2,7 L-2,9 L-3,9 L-3,11 L-5,11 L-5,9 L-4,9 L-4,7 L-3,7 L-3,5 L-2,5 L-2,3 L-1,3 L-1,1 L0,1 Z " fill="#181717" transform="translate(26,69)"/>
<path d="M0,0 L1,0 L1,2 L2,2 L2,4 L3,4 L3,6 L4,6 L4,7 L5,7 L5,9 L3,9 L3,8 L2,8 L2,7 L1,7 L1,6 L0,6 L0,5 L-1,5 L-1,3 L0,3 Z " fill="#595553" transform="translate(34,21)"/>
<path d="M0,0 L3,0 L3,3 L2,3 L2,6 L1,6 L1,8 L0,8 L0,9 L-1,9 L-1,10 L-2,10 L-2,8 L-1,8 L-1,7 L0,7 Z " fill="#C9C9C8" transform="translate(69,68)"/>
<path d="M0,0 L1,0 L1,2 L0,2 L0,3 L-1,3 L-1,5 L-2,5 L-2,6 L-3,6 L-3,7 L-4,7 L-4,8 L-6,8 L-6,9 L-8,9 L-8,8 L-7,8 L-7,7 L-6,7 L-6,6 L-5,6 L-5,5 L-4,5 L-4,4 L-3,4 L-3,3 L-2,3 L-2,2 L-1,2 L-1,1 L0,1 Z " fill="#D3D3D2" transform="translate(106,21)"/>
<path d="M0,0 L2,0 L2,1 L3,1 L3,2 L4,2 L4,3 L6,3 L6,4 L7,4 L7,5 L9,5 L9,6 L4,6 L4,5 L3,5 L3,4 L2,4 L2,3 L1,3 L1,2 L0,2 Z " fill="#201E1E" transform="translate(53,23)"/>
<path d="M0,0 L1,0 L1,4 L2,4 L2,7 L3,7 L3,11 L1,11 L1,9 L0,9 Z " fill="#14100F" transform="translate(37,101)"/>
<path d="M0,0 L1,0 L1,2 L2,2 L2,6 L1,6 L1,8 L0,8 L0,10 L-1,10 L-1,2 L0,2 Z " fill="#504E4C" transform="translate(77,77)"/>
<path d="M0,0 L2,0 L2,2 L4,2 L4,3 L3,3 L3,4 L-1,4 L-1,2 L-7,2 L-7,1 L0,1 Z " fill="#A7A6A5" transform="translate(61,70)"/>
<path d="M0,0 L1,0 L1,2 L0,2 L0,4 L-1,4 L-1,6 L-2,6 L-2,5 L-4,5 L-4,6 L-5,6 L-5,7 L-7,7 L-7,6 L-6,6 L-6,5 L-5,5 L-5,4 L-4,4 L-4,3 L-3,3 L-3,2 L-2,2 L-2,1 L0,1 Z " fill="#A2A19F" transform="translate(100,44)"/>
<path d="M0,0 L1,0 L1,2 L2,2 L2,4 L3,4 L3,5 L4,5 L4,6 L5,6 L5,7 L6,7 L6,8 L7,8 L7,9 L6,9 L6,10 L5,10 L5,9 L4,9 L4,8 L3,8 L3,7 L2,7 L2,5 L1,5 L1,4 L0,4 Z " fill="#43403E" transform="translate(42,24)"/>
<path d="M0,0 L1,0 L1,11 L0,11 L0,12 L-2,12 L-2,10 L-1,10 L-1,6 L0,6 Z " fill="#100F0E" transform="translate(112,99)"/>
<path d="M0,0 L1,0 L1,2 L0,2 L0,4 L3,4 L3,5 L2,5 L2,7 L1,7 L1,9 L-1,9 L-1,1 L0,1 Z " fill="#5D1C17" transform="translate(34,90)"/>
<path d="M0,0 L1,0 L1,3 L0,3 L0,4 L2,4 L2,6 L1,6 L1,7 L0,7 L0,8 L-2,8 L-2,4 L-1,4 L-1,1 L0,1 Z " fill="#141313" transform="translate(20,82)"/>
<path d="M0,0 L1,0 L1,1 L2,1 L2,3 L3,3 L3,6 L4,6 L4,7 L3,7 L3,10 L2,10 L2,9 L1,9 L1,3 L0,3 Z " fill="#32302F" transform="translate(77,70)"/>
<path d="M0,0 L2,0 L2,1 L3,1 L3,2 L1,2 L1,4 L0,4 L0,3 L-1,3 L-1,6 L0,6 L0,10 L-1,10 L-1,8 L-2,8 L-2,2 L-1,2 L-1,1 L0,1 Z " fill="#8B8A88" transform="translate(78,67)"/>
<path d="M0,0 L2,0 L2,2 L3,2 L3,3 L4,3 L4,4 L3,4 L3,5 L4,5 L4,7 L2,7 L2,6 L1,6 L1,5 L0,5 Z " fill="#A71B0E" transform="translate(86,61)"/>
<path d="M0,0 L2,0 L2,1 L1,1 L1,3 L0,3 L0,4 L-1,4 L-1,5 L-2,5 L-2,6 L-4,6 L-4,7 L-5,7 L-5,8 L-6,8 L-6,6 L-5,6 L-5,5 L-4,5 L-4,4 L-3,4 L-3,3 L-2,3 L-2,2 L-1,2 L-1,1 L0,1 Z " fill="#A5A5A3" transform="translate(85,55)"/>
<path d="M0,0 L2,0 L2,3 L3,3 L3,4 L2,4 L2,5 L1,5 L1,6 L-2,6 L-2,3 L-1,3 L-1,2 L0,2 Z " fill="#141313" transform="translate(28,47)"/>
<path d="M0,0 L1,0 L1,4 L3,4 L3,5 L2,5 L2,6 L3,6 L3,8 L2,8 L2,9 L1,9 L1,8 L0,8 L0,7 L-1,7 L-1,5 L0,5 Z " fill="#3E3C3C" transform="translate(41,108)"/>
<path d="M0,0 L4,0 L4,2 L5,2 L5,3 L6,3 L6,5 L3,5 L3,4 L4,4 L4,3 L1,3 L1,2 L-1,2 L-1,1 L0,1 Z " fill="#706E6B" transform="translate(65,93)"/>
<path d="M0,0 L1,0 L1,1 L2,1 L2,3 L3,3 L3,7 L1,7 L1,5 L0,5 L0,4 L-1,4 L-1,3 L-2,3 L-2,2 L0,2 Z " fill="#551F1A" transform="translate(123,77)"/>
<path d="M0,0 L2,0 L2,2 L3,2 L3,1 L5,1 L5,2 L4,2 L4,3 L3,3 L3,4 L1,4 L1,5 L0,5 L0,6 L-1,6 L-1,4 L0,4 L0,3 L-1,3 L-1,1 L0,1 Z " fill="#3F3D3C" transform="translate(91,43)"/>
<path d="M0,0 L1,0 L1,2 L3,2 L3,1 L4,1 L4,3 L3,3 L3,4 L2,4 L2,5 L0,5 L0,7 L-1,7 L-1,4 L-2,4 L-2,3 L-1,3 L-1,2 L0,2 Z " fill="#585756" transform="translate(117,24)"/>
<path d="M0,0 L1,0 L1,1 L2,1 L2,3 L1,3 L1,5 L0,5 L0,6 L-3,6 L-3,4 L-2,4 L-2,3 L-1,3 L-1,1 L0,1 Z " fill="#484645" transform="translate(79,103)"/>
<path d="M0,0 L2,0 L2,1 L5,1 L5,2 L6,2 L6,3 L8,3 L8,4 L6,4 L6,5 L5,5 L5,4 L4,4 L4,3 L3,3 L3,4 L2,4 L2,3 L1,3 L1,1 L0,1 Z " fill="#989896" transform="translate(68,99)"/>
<path d="M0,0 L2,0 L2,1 L8,1 L8,2 L2,2 L2,4 L0,4 L0,3 L-3,3 L-3,2 L0,2 Z " fill="#9E9D9B" transform="translate(88,70)"/>
<path d="M0,0 L3,0 L3,3 L2,3 L2,4 L0,4 L0,5 L-2,5 L-2,3 L-1,3 L-1,1 L0,1 Z " fill="#C82210" transform="translate(60,64)"/>
<path d="M0,0 L1,0 L1,1 L2,1 L2,2 L3,2 L3,3 L4,3 L4,4 L5,4 L5,5 L6,5 L6,7 L5,7 L5,6 L4,6 L4,5 L1,5 L1,4 L0,4 Z " fill="#1F1E1D" transform="translate(68,55)"/>
<path d="M0,0 L3,0 L3,1 L4,1 L4,2 L5,2 L5,3 L6,3 L6,5 L7,5 L7,7 L6,7 L6,6 L5,6 L5,5 L4,5 L4,4 L3,4 L3,3 L2,3 L2,2 L1,2 L1,1 L0,1 Z " fill="#423F3D" transform="translate(67,53)"/>
<path d="M0,0 L4,0 L4,3 L3,3 L3,5 L2,5 L2,4 L0,4 L0,3 L-2,3 L-2,2 L1,2 L1,1 L0,1 Z " fill="#A4A4A3" transform="translate(43,51)"/>
<path d="M0,0 L1,0 L1,1 L2,1 L2,3 L0,3 L0,4 L-1,4 L-1,8 L-3,8 L-3,4 L-2,4 L-2,3 L-1,3 L-1,1 L0,1 Z " fill="#0D0C0B" transform="translate(103,46)"/>
<path d="M0,0 L1,0 L1,1 L2,1 L2,2 L4,2 L4,3 L5,3 L5,4 L6,4 L6,5 L7,5 L7,6 L3,6 L3,5 L2,5 L2,3 L1,3 L1,2 L0,2 Z " fill="#817F7C" transform="translate(64,36)"/>
<path d="M0,0 L1,0 L1,1 L2,1 L2,3 L3,3 L3,4 L2,4 L2,6 L3,6 L3,7 L4,7 L4,8 L1,8 L1,6 L0,6 Z " fill="#AEAEAC" transform="translate(42,18)"/>
<path d="M0,0 L1,0 L1,1 L2,1 L2,2 L3,2 L3,3 L4,3 L4,4 L5,4 L5,5 L6,5 L6,6 L7,6 L7,7 L8,7 L8,8 L6,8 L6,7 L5,7 L5,6 L3,6 L3,5 L2,5 L2,3 L1,3 L1,2 L0,2 Z " fill="#D5D6D5" transform="translate(44,22)"/>
<path d="M0,0 L3,0 L3,2 L4,2 L4,5 L5,5 L5,6 L3,6 L3,5 L2,5 L2,4 L1,4 L1,2 L0,2 Z " fill="#555250" transform="translate(68,115)"/>
<path d="M0,0 L1,0 L1,4 L0,4 L0,7 L-2,7 L-2,3 L-3,3 L-3,1 L-2,1 L-2,2 L0,2 Z " fill="#9E9D9C" transform="translate(90,101)"/>
<path d="M0,0 L2,0 L2,1 L3,1 L3,3 L2,3 L2,4 L1,4 L1,5 L0,5 L0,6 L-1,6 L-1,1 L0,1 Z " fill="#8A281F" transform="translate(29,85)"/>
<path d="M0,0 L2,0 L2,1 L1,1 L1,2 L0,2 L0,3 L-1,3 L-1,4 L-2,4 L-2,5 L-3,5 L-3,4 L-6,4 L-6,3 L-3,3 L-3,2 L-4,2 L-4,1 L0,1 Z " fill="#8A8987" transform="translate(109,72)"/>
<path d="M0,0 L1,0 L1,6 L2,6 L2,7 L4,7 L4,8 L2,8 L2,9 L3,9 L3,10 L1,10 L1,9 L0,9 Z " fill="#706E6C" transform="translate(35,53)"/>
<path d="M0,0 L1,0 L1,1 L2,1 L2,2 L3,2 L3,3 L4,3 L4,4 L5,4 L5,5 L6,5 L6,6 L7,6 L7,7 L4,7 L4,6 L3,6 L3,5 L2,5 L2,3 L1,3 L1,2 L0,2 Z " fill="#DDDDDC" transform="translate(51,47)"/>
<path d="M0,0 L1,0 L1,2 L3,2 L3,5 L2,5 L2,7 L1,7 L1,5 L0,5 Z M3,0 L4,0 L4,2 L3,2 Z " fill="#393736" transform="translate(103,103)"/>
<path d="M0,0 L2,0 L2,1 L1,1 L1,3 L0,3 L0,4 L-1,4 L-1,3 L-2,3 L-2,4 L-3,4 L-3,5 L-4,5 L-4,4 L-5,4 L-5,3 L-4,3 L-4,2 L-2,2 L-2,1 L0,1 Z " fill="#969694" transform="translate(81,98)"/>
<path d="M0,0 L2,0 L2,1 L3,1 L3,2 L4,2 L4,3 L0,3 L0,4 L-1,4 L-1,5 L-3,5 L-3,4 L-2,4 L-2,3 L-1,3 L-1,1 L0,1 Z " fill="#6B6A68" transform="translate(82,92)"/>
<path d="M0,0 L2,0 L2,1 L3,1 L3,0 L4,0 L4,2 L3,2 L3,3 L2,3 L2,5 L1,5 L1,6 L0,6 Z " fill="#7B7976" transform="translate(47,89)"/>
<path d="M0,0 L2,0 L2,1 L3,1 L3,2 L4,2 L4,6 L3,6 L3,5 L2,5 L2,4 L1,4 L1,3 L0,3 Z " fill="#901F16" transform="translate(119,86)"/>
<path d="M0,0 L2,0 L2,2 L1,2 L1,3 L0,3 L0,4 L1,4 L1,6 L0,6 L0,7 L-1,7 L-1,5 L-2,5 L-2,3 L-1,3 L-1,1 L0,1 Z " fill="#632C26" transform="translate(27,78)"/>
<path d="M0,0 L1,0 L1,9 L0,9 L0,10 L-2,10 L-2,9 L-1,9 L-1,8 L-2,8 L-2,7 L-1,7 L-1,6 L0,6 Z " fill="#797876" transform="translate(114,53)"/>
<path d="M0,0 L1,0 L1,2 L2,2 L2,4 L4,4 L4,7 L2,7 L2,6 L1,6 L1,4 L0,4 Z " fill="#181717" transform="translate(47,112)"/>
<path d="M0,0 L2,0 L2,1 L6,1 L6,2 L5,2 L5,5 L3,5 L3,3 L2,3 L2,2 L1,2 L1,1 L0,1 Z " fill="#7A7977" transform="translate(39,72)"/>
<path d="M0,0 L4,0 L4,1 L5,1 L5,2 L6,2 L6,3 L4,3 L4,2 L2,2 L2,5 L1,5 L1,2 L0,2 Z " fill="#383838" transform="translate(25,30)"/>
<path d="M0,0 L3,0 L3,3 L2,3 L2,5 L1,5 L1,4 L0,4 L0,2 L-1,2 L-1,1 L0,1 Z " fill="#313130" transform="translate(30,105)"/>
<path d="M0,0 L1,0 L1,1 L3,1 L3,0 L4,0 L4,3 L2,3 L2,4 L1,4 L1,5 L0,5 Z " fill="#A0A09E" transform="translate(53,96)"/>
<path d="M0,0 L6,0 L6,2 L4,2 L4,3 L3,3 L3,2 L0,2 Z " fill="#A02B24" transform="translate(49,56)"/>
<path d="M0,0 L2,0 L2,1 L4,1 L4,4 L3,4 L3,5 L1,5 L1,1 L0,1 Z " fill="#464543" transform="translate(29,52)"/>
<path d="M0,0 L1,0 L1,2 L2,2 L2,3 L1,3 L1,4 L0,4 L0,5 L-1,5 L-1,6 L-4,6 L-4,5 L-2,5 L-2,4 L-1,4 L-1,1 L0,1 Z " fill="#868483" transform="translate(112,49)"/>
<path d="M0,0 L1,0 L1,2 L0,2 L0,4 L-2,4 L-2,3 L-3,3 L-3,4 L-4,4 L-4,2 L-3,2 L-3,1 L0,1 Z " fill="#777573" transform="translate(90,99)"/>
<path d="M0,0 L2,0 L2,1 L3,1 L3,3 L4,3 L4,4 L5,4 L5,6 L4,6 L4,5 L3,5 L3,4 L2,4 L2,3 L1,3 L1,2 L0,2 Z " fill="#5C5957" transform="translate(107,90)"/>
<path d="M0,0 L1,0 L1,1 L3,1 L3,2 L6,2 L6,3 L3,3 L3,6 L2,6 L2,3 L1,3 L1,2 L0,2 Z " fill="#686765" transform="translate(35,64)"/>
<path d="M0,0 L1,0 L1,3 L2,3 L2,4 L1,4 L1,5 L0,5 L0,6 L-2,6 L-2,4 L-1,4 L-1,2 L0,2 Z " fill="#514F4D" transform="translate(116,18)"/>
<path d="M0,0 L1,0 L1,1 L2,1 L2,2 L3,2 L3,3 L4,3 L4,4 L3,4 L3,5 L2,5 L2,6 L1,6 L1,2 L0,2 Z " fill="#272524" transform="translate(91,96)"/>
<path d="M0,0 L4,0 L4,2 L2,2 L2,3 L1,3 L1,4 L0,4 Z " fill="#767472" transform="translate(60,100)"/>
<path d="M0,0 L1,0 L1,1 L2,1 L2,4 L-1,4 L-1,2 L-2,2 L-2,1 L0,1 Z " fill="#101010" transform="translate(124,64)"/>
<path d="M0,0 L2,0 L2,1 L3,1 L3,2 L5,2 L5,3 L2,3 L2,5 L1,5 L1,2 L0,2 Z " fill="#313030" transform="translate(24,21)"/>
<path d="M0,0 L2,0 L2,2 L1,2 L1,3 L0,3 L0,4 L-2,4 L-2,2 L-1,2 L-1,1 L0,1 Z " fill="#0E0D0D" transform="translate(81,119)"/>
<path d="M0,0 L2,0 L2,2 L3,2 L3,3 L-1,3 L-1,2 L-2,2 L-2,1 L0,1 Z " fill="#9C9B99" transform="translate(60,79)"/>
<path d="M0,0 L1,0 L1,1 L2,1 L2,3 L-4,3 L-4,2 L-1,2 L-1,1 L0,1 Z " fill="#5C120C" transform="translate(99,53)"/>
<path d="M0,0 L2,0 L2,1 L3,1 L3,2 L4,2 L4,3 L-1,3 L-1,2 L0,2 Z " fill="#58120C" transform="translate(50,53)"/>
<path d="M0,0 L3,0 L3,3 L0,3 Z " fill="#1C1C1B" transform="translate(24,59)"/>
<path d="M0,0 L1,0 L1,1 L2,1 L2,2 L3,2 L3,3 L4,3 L4,4 L1,4 L1,3 L0,3 Z " fill="#939291" transform="translate(53,25)"/>
<path d="M0,0 L1,0 L1,1 L2,1 L2,2 L3,2 L3,3 L2,3 L2,4 L0,4 Z " fill="#2A2A2A" transform="translate(18,86)"/>
<path d="M0,0 L1,0 L1,1 L2,1 L2,2 L1,2 L1,3 L0,3 L0,4 L-1,4 L-1,1 L0,1 Z " fill="#302C2B" transform="translate(96,40)"/>
<path d="M0,0 L2,0 L2,1 L3,1 L3,2 L2,2 L2,3 L1,3 L1,2 L0,2 Z " fill="#363535" transform="translate(53,23)"/>
</svg>
